<svg xmlns="http://www.w3.org/2000/svg" width="750" height="1000" viewBox="0 0 750 1000"><path d="M734.6 366.3c-1.1-14.6-5.8-27.2-10.4-39.4 -4.6-12.2-8.9-23.8-9.5-36.8 1.9-9.3 6.8-15.8 11.7-21.6 0.6-0.7 0.7-1.7 0.3-2.5 -0.4-0.8-1.2-1.4-2.2-1.4 0 0 0 0 0 0 -15.5 0.1-23.9 12.5-30.7 25.8 -6.2 12.3-10.6 26.2-14.8 40.6 -1.5 1.4-2.6 3.2-3.7 4.8 -2 3.2-3.5 5.2-6.6 5.8 -4.7-2.7-8.1-9.9-8.7-18.6 -0.6-8.6 1.8-16.3 6-20.2 1 1.7 0.2 4.4-1.6 8.8 -1.2 3-2.3 5.6-1.5 7.8 0.3 0.7 0.8 1.2 1.5 1.4 0.7 0.2 1.4 0.1 2-0.2 12.9-8 21.8-29.1 21.8-51.3 0-19.4-6.9-34.7-18.7-42 -0.9-0.6-2.1-0.4-2.9 0.3 -0.8 0.8-0.9 2-0.4 2.9 5 8.3 4.2 23.7-1.7 34.3 -2.6 4.6-7.3 10.1-14.4 9.5 -4.7-0.4-7.3-4.5-10-8.9l-0.2-0.3c-3.7-22.5 8.9-36.2 23.3-49.4 0.1-0.1 0.3-0.3 0.4-0.5 7.8-12.1 10.5-30.9 7.5-51.6 -1.2-8.4-2.6-17.9-6.4-24.8 -0.5-0.9-1.5-1.4-2.5-1.2 -1 0.2-1.8 1-1.9 2.1 -1.8 14.6-9.2 39.7-26 38.2 -7.8-0.7-8-10.1-7.9-13 0.4-9.2 5.7-19.5 12.8-19.5 1.4 0 2.5 0.6 4 1.4 1.7 0.9 3.5 1.9 6 2.1 0.7 0.1 1.4-0.2 1.9-0.7 0.5-0.5 0.7-1.2 0.7-1.9 -1-9.1 1.1-16.5 6.1-22 5.9-6.5 16-10.3 27.8-10.3 4.6 0 9.3 0.6 13.7 1.7 1.1 0.3 2.2-0.2 2.7-1.3 0.5-1 0.2-2.2-0.7-2.9 -7.1-5.7-15.9-8.4-26.8-8.4 -8.8 0-18.2 1.8-27.3 3.5 -8.1 1.5-16.4 3.1-24.3 3.4 -6.4-4.6-6.9-13.5-6-20.4 5.7-12.8 11-24.9 23-32.9 8.1-5.4 20.6-8.9 31.8-8.9 6 0 14.2 1 19.9 5.7 0.3 1.1 0.8 2 1.3 2.8 0.2 0.3 0.4 0.7 0.6 1.1 0.4 9-4.1 13.3-14.9 14.3 -0.1-2.8-1.8-3.7-3.3-3.9 -1-0.2-2.1 0.3-2.5 1.3 -1.5 3-1.6 5.5-0.4 7.4 1.3 2.1 4 3.2 7.9 3.2 6.6 0 16.1-3.2 19.3-6.4 0.1-0.1 0.2-0.2 0.3-0.3 0.4-0.6 0.8-1.1 1.2-1.6 2.2-3.1 4.5-6.3 4.9-11.3 0.4-6.7-1.6-12.6-6-17.3 -7.5-8-22.3-12.6-40.5-12.6 -15.2 0-30.6 3.3-39.6 8.5 -1.5-0.1-2.8 0.1-3.9 0.3 -1.6 0.2-2.8 0.3-3.8-0.1 -0.8-0.3-1.7-0.2-2.3 0.4 -0.7 0.5-1 1.4-0.9 2.2 1.4 10-1.3 19.7-7.3 26.5 -5.9 6.8-14.5 10.4-24.3 10.1 -4.2-13.2 6.5-23.6 14.4-31.3l0.9-0.9c0.7-0.6 0.9-1.6 0.6-2.5 -0.3-0.9-1.1-1.5-2-1.6 -4.7-0.5-8 2.1-10.9 4.4 -1.8 1.4-3.5 2.7-5.3 3.3 -0.2 0.1-0.4 0.2-0.6 0.3 -15.8 10.3-21.3 30.8-26.6 50.6 -3.9 14.6-7.9 29.7-16.1 39.9 -2.1 1.2-4 2.6-5.8 3.9 -3.8 2.8-7.4 5.5-12.7 6.2 -6.6 0.4-11.2-6.1-12.4-12.6 -0.8-4.7 0.1-10.4 5.1-12.7 0.5 0.2 0.7 0.4 0.9 0.7 1 1.7 0.4 5.6-0.7 8 -0.4 1-0.2 2.1 0.6 2.8 0.8 0.7 2 0.8 2.9 0.2 7-4.5 7.6-14.7 7.7-23.9 0-0.1 0-0.3 0-0.4 -1.7-11.1-8.1-17.4-14.2-23.5 -5.2-5.2-10.2-10.2-12.3-18 5.5-21.7 22.4-34.4 47.7-35.9 4.2 1.6 7.8 3.3 10.9 5.2 0.6 0.3 1.2 0.4 1.9 0.3 0.6-0.2 1.2-0.6 1.5-1.1 1.6-2.9-0.9-4.8-1.8-5.5 -0.3-0.2-0.9-0.7-0.9-0.8 0-1-0.7-1.9-1.6-2.2 -8.6-3-18.4-4.6-28.3-4.6 -22.3 0-41.8 7.5-52.1 20.1 -7.3 8.9-9.9 20.2-7.4 32.6 0 0.2 0.1 0.4 0.2 0.5 1.3 2.9 3.1 5.8 5 8.9 4.5 7.3 9 14.8 7.9 22.3 -4.9-2.7-10.6-5.2-18.9-4.9 -1 0-1.8 0.6-2.1 1.5 -0.3 0.9-0.1 1.9 0.5 2.6 2 2 4.2 3.7 6.4 5.4 6 4.6 11.6 8.9 12.3 17.6 0.8 10.5-2.8 20.2-11 29.7 -5.2 4.3-15.9 8.6-26.3 8.6 -5.2 0-12.1-1.1-16.2-6.4 -0.1-0.6-0.3-1.1-0.4-1.7 -0.1-0.4-0.2-0.8-0.3-1.2 5.9-17.7 0-35.2-14.1-41.3 -1-1.8-1.8-3.4-1.9-5.8 1.1-0.5 2.2-0.7 3.3-0.7 3.6 0 6.7 2.9 9.7 5.7 1.3 1.2 2.4 2.3 3.7 3.2 0.8 0.6 1.8 0.6 2.6 0.1 0.8-0.5 1.3-1.4 1.1-2.4 -2.8-20.7-20.5-27-37.7-33.1 -19.2-6.8-35.8-12.7-33.3-36.8 0.2-2 0.9-4.1 1.7-6.3 1-2.9 1.9-5.8 1.9-8.7 0-1-0.6-1.9-1.5-2.2 -0.9-0.4-2-0.1-2.6 0.6 -4.5 4.9-10.5 12.8-10.8 24.5 -0.6 18.9 6.6 29.4 13 38.7 5.5 8 10.7 15.6 10.5 27.9 -3 11.2-7.3 18.6-13.5 23 -5.7-10.4-16.5-20.2-29.3-20.2 -2.9 0-5.8 0.5-8.7 1.5 -1 0.3-1.6 1.3-1.6 2.4 0 1.1 0.8 2 1.8 2.2 1.4 0.4 4.7 1.2 5.6 3 0.3 0.5 0.4 1.2 0.3 2 -16.9-0.1-27.9-7.7-30.7-20.9 2.7-1 5.4 1.2 8.1 3.3 2.3 1.8 4.7 3.7 7.4 3.9 0.9 0 1.7-0.4 2.2-1.1 0.5-0.8 0.5-1.7 0-2.5 -13-21.7-31.9-34.5-57.8-38.9 -0.6-0.1-1.3 0.1-1.9 0.5 -0.2 0.1-1 0.3-1.5 0.4 -1.6 0.3-4 0.8-4.9 3.2 -0.3 0.8-0.1 1.7 0.4 2.3 1.5 1.8 3.9 2.2 6 2.6 1 0.2 1.9 0.3 2.5 0.6 12.5 5.9 23.1 25.5 22.8 41.8 -0.2 7.7-2.9 17.9-14.6 23.1 -7.1 0.2-12-6.7-13.3-13.3 -0.9-4.9 0-10.9 5.3-13.4 2.6 0.7 4.6 2.1 5.8 4.1 1.5 2.5 1.8 5.8 0.8 9.6 -0.2 0.9 0.1 1.9 0.8 2.5 0.7 0.6 1.8 0.7 2.6 0.2 2.8-1.5 4-4.2 5-6.7 0.2-0.5 0.4-1.1 0.7-1.6 0.2-0.5 0.3-1 0.2-1.5 -0.1-0.4-0.2-0.9-0.4-1.4 -0.4-1.6-0.9-3.1-0.3-4.2 0.4-0.7 0.3-1.6-0.1-2.3 -7.5-12.3-29-40.9-67.4-40.9 -3.8 0-7.6 0.3-11.5 0.9 3.8-10 14.3-11.7 20.6-11.7 10.7 0 22.4 4.4 28.5 10.7 0.8 0.9 2.2 1 3.1 0.3 1-0.7 1.3-2 0.7-3 -7.3-13.7-22.4-20.6-37-27.3 -14.4-6.6-29.3-13.4-36.3-26.8 5.8-6 17.9-10 30.2-10 7.6 0 14.2 1.6 18.7 4.5 0.8 0.5 1.9 0.5 2.7-0.1 0.8-0.6 1.2-1.5 1-2.5 -0.5-2-2.5-4-4.6-6 -0.8-0.8-1.5-1.5-2.1-2.1 -0.3-0.3-0.6-0.5-1-0.7 -14-5.1-29.3-7.7-45.6-7.7 -49.6 0-99.3 24.1-118 57.2 -0.1 0.2-0.2 0.5-0.3 0.8 -1 6.2-1.7 13.2 0.7 18.7 0.1 0.2 0.2 0.4 0.4 0.6 2.8 3.2 7.5 5 12.9 5 5.6 0 10.9-2 14.2-5.4 2.5-2.6 3.8-5.8 3.7-9.4 0-0.7-0.3-1.3-0.9-1.8 -0.3-0.2-0.5-0.5-0.8-0.8 -1-1.1-2.5-2.8-5.5-2.8l-0.4 0c-0.8 0-1.5 0.5-1.9 1.1 -0.4 0.7-0.5 1.5-0.2 2.2 0.8 1.9 0.5 3.1 0.2 4.6 -0.1 0.3-0.1 0.6-0.2 0.9 -1.3 1-2.9 1.2-4 1.2 -2.3 0-4.6-1-5.9-2.4 7.8-19.2 34.3-33.6 62.3-33.6 18 0 32.8 6.1 41.5 17.2 2.9 9.5-4.9 20-9.3 25.8l-4.2 3.3c-24.1 19.2-48.9 39-59.6 72.6 -0.1 0.2-0.1 0.5-0.1 0.7 0 1.5 0 2.9 0 4.4 -0.1 7.5-0.2 15.3 4.9 19.9 0.7 0.7 1.8 0.8 2.7 0.3 0.9-0.5 1.4-1.4 1.3-2.4 -0.9-8.1 1.5-15.6 7-21.7 7.2-8 19.1-13 31.2-13 10.8 0 19.8 3.9 25.5 10.9 0.5 0.6 1.1 0.9 1.9 0.9 0.7 0.1 1.4-0.3 1.9-0.9 5.6-6.9 13.7-9.6 20.8-6.9 8.5 3.2 12.6 13 12.9 21.2 0.2 6.5-2 14.6-8.9 17.7 -2 0.9-3.8 1.4-5.4 1.4 -6 0-7.7-6.5-7.7-10.4 0-3.9 1.5-8 4.3-8 1.1 0 2.9 0.5 5.6 3.1 0.7 0.7 1.9 0.8 2.8 0.4 0.9-0.5 1.4-1.5 1.2-2.5 -1.3-7.4-8.1-11.4-19.2-11.4 -8.2 0-16.9 2.1-21.8 4 -0.1 0-0.2 0.1-0.3 0.2 -21.7 12.3-43.6 30.6-41 73.2 0 0.2 0 0.3 0.1 0.5 1.9 7 4.6 16.5 12.3 17.1 0.7 0 1.4-0.2 1.9-0.7 0.5-0.5 0.7-1.2 0.6-2 -1.9-13.9 4.9-25.9 16.7-29.4 8.2 1.3 13.5 5.5 15.7 12.5 4.9 15.5-6.1 41.8-18.5 53.3 -5.6 5.2-15.8 10.7-28 10.7 -2.8 0-5.6-0.3-8.2-0.9 -0.8-0.5-1.6-1.1-2.4-1.6 -2.6-1.6-4.9-3.1-5.8-5.7 2-3.2 7.7-5 11.3-5 0.7 0 1.3-0.3 1.8-0.8 0.4-0.5 0.7-1.2 0.6-1.9 -0.8-6.2-7.7-6.2-10.7-6.2 -0.7 0-1.4 0-2 0 -0.7 0-1.3 0-2 0l-0.9 0c-0.4 0-0.7 0.1-1.1 0.2 -47.8 22.6-77.1 77.8-72.8 137.7 1.4 10.5 5.2 21.4 11.5 33.4l0.2 0.4c5.1 9.8 10.9 20.8 20 24.2 1 0.4 2 0.1 2.7-0.7 0.6-0.8 0.7-1.9 0.2-2.8 -7.2-11.5-13.8-24.6-13.9-42.4 3.9-21.1 20.9-88.6 81.4-92.7 6.2 2.8 9.4 8.4 9.5 16.5 0.2 17.4-13.7 40.7-24.6 46.4 -2.5-0.9-4.3-2.7-5.5-5.5 -2.1-5.1-1.5-12.4 1.6-17.8 0.6-1 0.4-2.2-0.4-2.9 -0.8-0.8-2.1-0.8-3-0.2 -15 10.4-18.5 37.8-13.2 57.2 9.4 34.4 42.7 59.8 84.7 64.5 1 0.1 2-0.4 2.4-1.4 0.3-0.6 0.3-1.3 0.1-1.8 2.8 2.3 5.9 4.4 9.3 6.4 3.5 2.2 7.5 4 11.2 5.7 10.4 4.8 20.3 9.4 22.3 20.7 -0.3 1.1-0.5 2.2-0.7 3.4 -1 4.7-1.9 9.2-5.1 10.7 -3.7 0.3-6.5-0.7-8.6-2.9 -4.1-4.4-3.9-12.6-3.8-15.1 0.1-1-0.4-1.9-1.3-2.3 -0.9-0.4-1.9-0.3-2.6 0.3 -11.3 9.7-6.6 21.6-2.5 32.2 3.2 8.2 6.2 15.9 3.6 23.2l-0.9 0.6c-3 2.1-5.8 4-9.3 5.2l-0.5 0c-28.3 0-42.4-12-43.2-36.8 1.3-10.9 7.1-17.2 13.2-23.9 2.5-2.7 5-5.4 7.2-8.5 0.6-0.9 0.6-2.1-0.1-2.9 -0.7-0.8-1.9-1.1-2.9-0.6 -24.2 11.8-52.7 46.3-40.5 86 2.7 8.9 7.5 16.5 12.1 23.9 1.2 1.9 2.3 3.8 3.5 5.7 0.1 0.2 0.2 0.3 0.3 0.4 10.2 10.7 31.7 28.6 61.6 28.6 5.7 0 11.4-0.6 17.2-1.9 0.4-0.1 0.7-0.3 1-0.5 0.9-0.8 2.1-1.4 3.4-2.1 3.2-1.7 7.1-3.8 7.7-9.2 0.1-0.9-0.3-1.8-1.1-2.3 -0.8-0.5-1.7-0.5-2.5 0l-0.8 0.5c-3.2 1.9-8 4.9-12.9 4.9 -1.8 0-3.4-0.4-5-1.1 -4.4-5.3-5.4-13.5-2.5-21 2.4-6.2 6.9-10.3 12-10.9 10.3-1.3 19.6 10.7 21.3 21.5 1.6 10.2-1.3 20.9-7.9 28.7 -5.5 6.5-12.8 9.9-20.4 9.5 0-0.1 0-0.3 0-0.5 0.1-1.2 0.1-2.9-1-4.7 -0.6-1-1.9-1.4-2.9-0.9 -36.7 15.3-56 46.3-55.6 89.5 0 0.4 0.1 0.7 0.3 1.1 1 1.9 1.8 4.7 2.6 7.5 1.9 6.5 3.9 13.2 8.9 13.7 0.8 0.1 1.5-0.2 2-0.7 0.5-0.5 0.7-1.3 0.6-2 -3.2-18.2 0.6-35.3 10.6-48.3 9.4-12.2 23.6-19.8 40-21.3 1.6 1.5 1.4 3.3 0.9 6.7 -0.4 2.5-0.8 5.3 0 8.3 0.3 1 1.1 1.7 2.1 1.7 1 0.1 2-0.5 2.4-1.5 9.7-22.8 30.6-50.1 75.3-50.1 4.7 0 9.5 0.3 14.5 0.9 3.7 2.5 5.5 4.7 5.2 9.1 -4.7 6.4-11.1 11.2-20.6 15.6 -1.7 0.8-3.6 1.5-5.6 2.3 -10 4-22.4 8.9-21.3 23 0.1 0.7 0.4 1.3 0.9 1.7 3.4 2.7 5.1 5.4 5.1 8.2 0 3.7-3.1 6.9-5.7 9 -7.6 6.1-17.4 11.6-27.8 17.4 -19.3 10.8-39.2 22-48.8 38.9 -0.1 0.1-0.1 0.3-0.2 0.4 -1.4 4.5-2 9.9-1.6 16.7 0 0.6 0.3 1.2 0.8 1.6 0.6 0.6 1 2 1.3 3.4 0.1 0.4 0.3 0.8 0.6 1.1 13.5 13.3 31.3 19.6 56.1 19.6 16.8 0 35-2.9 52.6-5.6 17-2.7 34.5-5.4 50.7-5.6 1.8 0.8 3.8 1.2 5.8 1.6 2.3 0.4 4.5 0.9 5.7 1.8 -8.1 13.9-19.1 26-30.8 38.9 -2.9 3.2-5.9 6.5-8.9 9.9 -1.9 2.1-3.9 4.3-5.9 6.5 -13.2 14.3-28.1 30.5-29.9 51.6 -1.7 19.7 7.7 29.8 16.9 39.6 1.4 1.5 2.8 3 4.1 4.5 0.1 0.1 0.2 0.2 0.2 0.2 8.3 7.1 19.8 10.8 33.2 10.8 17.4 0 36.9-6.5 48.7-16.2 0 0.2 0 0.4 0.1 0.6 0.3 1.1 1.3 1.9 2.4 1.8 14.2-0.7 24.5-6.3 31.8-11.1 0.1-0.1 0.3-0.2 0.4-0.3 5.9-6 10.5-13.1 13.8-21.2 0.1-0.3 0.2-0.6 0.2-0.9 0-3.8 0.8-8 1.6-12.5 1.7-9.2 3.4-18.8-1.5-25.7 -0.6-0.8-1.6-1.2-2.6-0.9 -1 0.3-1.7 1.1-1.7 2.2 -0.3 4.4-2.1 14.6-13.3 14.6l-0.4 0c-0.8-0.2-1.6-0.9-2.3-2 -1.5-2.4-2.1-6-1.3-8.8 1.9-7.4 14.6-15 25.2-15 2.4 0 4.5 0.4 6.2 1.2 0.9 0.4 1.9 0.3 2.6-0.4 0.7-0.7 1-1.7 0.6-2.6 -2.4-6.5-12.3-7.3-19.5-7.3 -1.8 0-3.5 0-5.5 0.1 -17.2 2.3-26.9 12.2-36.2 21.8 -6.5 6.7-12.7 13.1-21.3 17 -2.4 0.3-4.9 0.1-8.1-0.5 -1-0.8-1.9-1.9-2.7-3.4v-5.2c2.9-9 8.4-15.9 16.7-21 1.4-0.1 2.7-0.5 3.7-0.8 0.8-0.2 1.5-0.4 2.1-0.5 -3 9.9-10.7 15-17.9 18.8 -1 0.5-1.5 1.6-1.2 2.7 0.3 1.1 1.2 1.8 2.3 1.8h6.1c0.6 0 1.1-0.2 1.5-0.5 2.6-2.1 5.5-4 8.5-6.1 9.9-6.6 21.2-14 20.9-30 0-0.9-0.5-1.7-1.3-2.1 -3.3-1.6-7.5-2.5-12.4-2.5 -10.5 0-22.2 3.7-28.3 5.9 -0.8 0.3-1.4 1-1.5 1.9 -1.3 9.4-10.2 22.4-23.4 21.8 1.7-3.4 4.6-5.7 7.7-8.2 1.3-1.1 2.7-2.2 3.9-3.4 0.8-0.8 1-2 0.4-2.9 -0.5-1-1.7-1.4-2.7-1.1 -21.1 6-31.4 17.1-29.8 32.1 0.1 1 0.8 1.8 1.8 2.1 2.8 0.7 6.6-0.1 10.1-1 2.4-0.6 4.8-1.2 6.8-1.2 1.7 0 2.9 0.4 3.8 1.3 0.3 6.8-2.5 14.7-11.7 15.6 -1.1 0.1-1.9 0.9-2.1 1.9 -0.2 1 0.3 2.1 1.2 2.6 2.2 1.1 4.4 1.7 6.6 1.7 3.7 0 6.9-1.4 10-2.8 3.1-1.4 6-2.6 9.2-2.7 5 3 11.2 4.7 17.5 4.7 4.2 0 8.2-0.7 11.8-2.1 -7.6 13.3-16.4 24.4-35.5 24.4 -1.2 0-2.4 0-3.5-0.1 -16.3-2.2-26.6-6.8-32.4-14.2 -0.4-1-0.9-1.8-1.4-2.7 -0.5-0.9-1-1.7-1.3-2.7 -0.1-53.6 38.3-69.1 78.9-85.5 32.1-13 65.4-26.4 77.6-60.3 0.1-0.2 0.1-0.4 0.1-0.6 0.5-4.8-0.3-8.1-1.2-11.4 -0.1-0.6-0.3-1.1-0.4-1.7 -0.1-0.3-0.2-0.6-0.4-0.9 -2.6-3.5-5.9-6.2-9.1-8.8 -2.3-1.9-4.4-3.6-6.4-5.7 -0.3-0.3-0.6-0.5-1-0.6 -19.3-6.2-34.6-9.8-55.8-9.8 -23.6 0-38.3 6.6-53.8 13.5 -2.6 1.2-5.2 2.3-7.9 3.5 -10.4 4.5-21.8 9.7-33.8 15.3 -31.6 15-53.4 16.7-63.4 4.9 0.1-0.8 0.3-1.5 0.5-2.2 0.4-1.4 0.8-3 0.6-5.3 9.6-22.6 37.3-28.7 63.2-31.6 2.9-0.3 6-0.6 9.2-0.8 12-1 24.5-2 31.4-7.9 0.3-0.3 0.5-0.6 0.7-1 0.5-1.4 1.1-2.9 1.6-4.3 4.8-13 9.3-25.3 21.6-29.7 -2.4 7-0.7 12.5 1.4 16.1 4.5 7.6 14.6 12.8 25.2 12.8 8.9 0 16.4-3.7 20.4-10.2 0.5-0.8 0.5-1.7 0-2.5 -0.5-0.8-1.3-1.2-2.2-1.2 -1.5 0.1-3.1 0.4-4.7 0.7 -2.3 0.4-4.7 0.8-6.9 0.8 -2.1 0-3.8-0.4-5.1-1.1 -0.9-2.7-0.4-4.5 0.3-7.6 0.1-0.4 0.2-0.9 0.3-1.3 6.7-5.9 18.9-6.4 31.8-6.4l7.7 0c5.4 0 11.1-0.1 16.3-0.7 0.3 0 0.6-0.1 0.8-0.3 10.5-5.6 23.6-12.5 24.7-30.5 0-0.5-0.1-1-0.3-1.4 -0.4-0.6-0.7-1.3-1.1-2.1 -1.8-3.6-4.4-8.4-9.7-8.4 -0.6 0-1.3 0.1-2 0.2 -0.8 0.2-1.5 0.8-1.8 1.7 -0.2 0.8 0 1.7 0.6 2.3 2.1 2.1 1.8 3.6 1.4 4.6 -1.5 3.5-8.3 6.8-14.3 6.8 -1.8 0-5.1-0.3-7.1-2.3 0-0.7 0.1-1.2 0.3-1.9 0.1-0.4 0.2-0.9 0.3-1.4 5.8-9.1 16-13.7 30.4-13.7h0.3c23 0 38 9.3 53.8 19.1 11.8 7.4 24.1 15 39.8 18.1 0.2 0 0.5 0.1 0.7 0 24.2-2.1 31.7-21.4 39-40 3.9-9.9 7.6-19.3 13.6-26.1 0.6-0.6 1.4-1.3 2.4-1.9 2.2-1.6 5-3.6 5.4-7 0.1-0.8-0.2-1.6-0.8-2.1 -0.6-0.5-1.4-0.7-2.2-0.5 -7.9 2-11.9 7.6-15.8 12.9 -3.7 5.1-7.2 9.9-13.9 11.3 -3-3.7 0.4-10.2 4.2-16.7 0.4-0.7 0.8-1.3 1.1-1.8 7.2-8.1 17.3-13.2 28-18.6 7.2-3.6 14.6-7.3 21.1-12.2 9.6-8.5 9.9-23.3 10.2-37.6 0.2-8.9 0.4-17.3 2.6-23.9 6.7-10.5 16.8-16.6 30.8-18.6 1.2-0.2 2-1.2 2-2.4 0-1.2-0.9-2.2-2-2.4 -2.5-0.4-4.9-0.6-7.2-0.6 -20.7 0-31.5 14.4-42.1 28.4 -9.9 13.1-19.2 25.5-36.1 25.5 -3.6 0-7.5-0.6-11.5-1.7 -3-1.7-5.5-5.7-6.7-11.1 -1.8-7.8-0.7-16.6 2.6-20.9 0.7-0.9 0.7-2.1 0-3 -0.7-0.9-1.9-1.1-2.9-0.6 -11.1 5.4-10.5 17.8-10 28.8 0.2 4.2 0.4 8.6 0 12.4 -0.8 7.3-3.9 12.1-7.3 17.2 -1.1 1.8-2.3 3.6-3.4 5.5 -0.8 0.6-1.6 1.2-2.5 1.9 -8.2 6.3-19.5 14.9-32.6 15.7 -7.8 0.5-15.8-3.5-18-8.8 -0.9-2.2-0.6-4.4 0.8-6.5 2.6 2.6 6 3.9 10.1 3.9 8.6 0 18.8-6.3 22.3-14 3.1-8.4 0.4-16.6-2-23.9 -1.6-4.8-3-9.4-2.5-13.1l0-0.3c0.2-1.3-0.7-2.5-2-2.7 -1.3-0.2-2.5 0.7-2.7 2l0 0.3c-1.8 11.6-11.2 20.3-21.8 20.3 -3.2 0-6.4-0.8-9.5-2.2l-0.4-0.5c-0.8-1-1.6-2-2.5-2.9 -7.3-27.7 17.5-44.9 36.7-55.3 13.3-6.9 31.9-8.5 49.9-10.1 15.1-1.3 30.6-2.7 43.2-7.1 0.1 0 0.3-0.1 0.4-0.2 6.2-3.5 10.8-8.5 14.7-14.4 -7 18.8-23.9 28-42.2 36.1 -1.4 0.3-2.4-0.2-3.5-0.8 -1.1-0.6-2.5-1.2-4-0.8 -1.1 0.3-1.9 1.4-1.7 2.5 0.4 4 3.6 5.4 5.8 6.3 0.5 0.2 1.1 0.4 1.6 0.7 0.3 0.2 0.7 0.3 1.1 0.3 1.3 0 2.5 0 3.7 0 0 0 0 0 0 0 41.1 0 68.5-17.9 83.7-54.6 0.4-1.1 0.1-2.3-0.9-2.9 -0.7-0.5-1.5-0.7-2.3-0.7 -1.8 0-2.9 1.4-3.6 2.2 -0.1 0.1-0.1 0.1-0.2 0.2 -6.3-9.9-7-26.8-1.5-39.3 2.2-4.9 7.2-13.1 16.7-14.5 2.9 2.6 4.5 6.3 4.9 10.8 1 11.5-6.6 26-12.1 32.1 -0.7 0.8-0.8 2.1-0.1 3 0.7 0.9 1.9 1.2 2.9 0.8C718.2 448.7 738 411.9 734.6 366.3zM642.6 124.1c-0.1 1.7-0.7 3.2-1.7 4.4 -0.9 1-2.2 1.7-3.7 1.9 0-1.2 0.5-2.4 1.3-3.6 1.2-1.8 2.8-2.7 3.7-2.7C642.3 124 642.5 124 642.6 124.1zM535.3 211.7c-2.6 4-6 6.9-10.1 8.8C527.4 216.7 530.8 212.6 535.3 211.7zM557.3 178.9c-0.8 1.5-2.6 4-5.8 4.2 -0.9-4.6-0.3-9.5 1.8-12.2 1.2-1.5 2.7-2.3 4.6-2.5C559.2 171.4 559.1 175.6 557.3 178.9zM575.5 126.5c-1.2 7.7-5.3 14.8-10.1 17.4 -2.5-1.4-4.4-3.8-5.7-7.2 -2.9-8.2-1.2-20.4 2.2-28.4 1.8 0.7 3.6 0.9 5.3 1.2 1.4 0.2 2.7 0.4 4.1 0.8C575 113.7 576.5 119.5 575.5 126.5zM500.9 240.8c-1.5 1.3-4 2.1-6.5 2.5C495.8 242.1 497.9 241.3 500.9 240.8zM481.9 61.5c-0.1 0.3-0.2 0.7-0.3 1 -0.7 2.6-1.4 5-2.3 7.3 -0.1-0.3-0.1-0.6-0.2-0.9C479 66.9 480.2 64.1 481.9 61.5zM459.5 654.7h0c-3.4 0-6.9-0.6-9.4-1.5 2.1-2.8 7.3-4.8 13.1-4.8 3.4 0 6.5 0.8 8.5 2.1C470 653.4 464.6 654.7 459.5 654.7zM367.5 148.9c0.1-0.3 0.2-0.7 0.3-1 1.6-6.3 3.4-13.4 7-15.3C374.4 139.8 371.8 145.7 367.5 148.9zM372.5 688.5c-3.1 0-6-0.3-8.9-0.9 0.3-4.3 2.2-8.4 5.5-11.9 5.8-6.1 15.3-9.8 24.9-9.8 5.2 0 9.9 1.1 13.8 3.3C402.8 681.9 386.6 688.5 372.5 688.5zM292.3 714.1c-1.1 4.7-4.8 7.3-11.7 8.1 0-1.9 0.6-3.7 1.8-5.3 1.9-2.5 4.9-3.9 8.2-3.9 0.4 0 0.7 0 1.1 0.1C291.8 713.4 292 713.8 292.3 714.1zM226.3 204.1c-8.3-3.5-12.5-13.1-12.7-29.3l0.2-0.2c1-1.4 1.8-2.7 3.1-3.3 0.3 0 0.5 0 0.8 0 9.8 0 13.1 9.7 13.8 12.7C233.2 191 232 200.2 226.3 204.1zM165.4 455.6c1.3 1.3 2.4 2.8 3.6 4.4 3 4.1 6.3 8.7 14.6 8.9l0.4 0c3.7 0 7.3-1 10.9-2 3.4-0.9 6.7-1.8 9.9-1.8 0.9 0 1.7 0.1 2.5 0.2 7.5 1.3 11.7 6.6 12.7 16.3 -0.3 0.4-0.6 0.9-0.9 1.3 -0.4 0.6-0.8 1.2-1.2 1.6 -3.7-0.7-7.5-1.3-11.5-1.9 -18.3-2.7-37.2-5.5-40.8-20.2C164.9 459.9 165 457 165.4 455.6zM308.1 643c-0.4 0.8-0.8 1.9-0.8 3.4 -2.6 2.7-7.1 4-12 5 -2.6-0.3-5.3-0.4-8.1-0.4 -5.8 0-11.2 0.6-16.5 1.2 -4.6 0.5-9 1-13.2 1 -2.2 0-4.2-0.1-6.1-0.4 -0.1-1.5 0.6-2.8 1.6-4.6 0.6-1 1.2-2.1 1.6-3.3 5-5.5 19.2-11.2 33-11.2C293.7 633.6 304.2 634.8 308.1 643zM273.8 229.3c0.1-0.2 0.6-0.4 1.4-0.4 4.2 0 11 4.1 12.1 7.7 -0.8 0.7-1.5 0.9-2.1 0.9 -1.8 0-4.1-1.2-6.3-2.3 -1.4-0.7-2.8-1.4-4.1-1.9C273.5 230.9 273.6 229.6 273.8 229.3zM248.1 216.8c-1.8-2.2-2.8-5.3-2.4-7.6 0.3-1.8 1.1-1.8 1.5-1.8 1.9 0 5.1 2.2 6.7 5.3 0.8 1.6 1.5 4 0.2 6.4C251.3 219.8 249 217.9 248.1 216.8zM152.4 596.8c-3.3-0.3-6.3-1.8-8.6-4.3 -2-2.2-3.3-4.8-3.6-7.7C146.8 586.6 151.3 591 152.4 596.8zM421.2 804.5c-4.4 0-8.5-2.5-12.9-5.2 -2.5-1.6-5.2-3.2-7.9-4.3 -11.9-4.7-22.5-7.1-32.5-7.3l-0.7 0c-3.2 0-6.4 0.4-9.5 0.8 -3.6 0.5-7.2 0.9-10.1 0.6 5.2-3.8 14.5-5.5 22.4-5.8 2.3-0.1 4.6-0.2 7-0.2 13.9 0 45.8 2.1 48 20.7C423.8 804.3 422.5 804.5 421.2 804.5zM397.8 958.4c2.5-4 4.8-7.8 7.6-11.1 -1 13.7-11.4 21.8-18.5 25.7C391.3 968.8 394.6 963.5 397.8 958.4zM560.2 627.3c-0.4 0.9-0.8 1.8-1.1 2.7 -0.1 0.4-0.2 0.8-0.1 1.1 0.9 6.9-0.7 12.8-4.4 17.1 -3.6 4.1-9.2 6.5-15.1 6.5 0 0 0 0 0 0 -5.7 0-11.1-2.2-15-6 -0.1-1.4-0.4-2.5-0.8-3.5 5.9-12.5 18.6-20.6 38.6-24.4C562.3 622.8 561.3 625 560.2 627.3z" fill="#FFF"/><path d="M213.7 24c-14.3-9.2-43.5-4.7-53.1 7.1 13.6 29.3 59.7 28.8 74 55.6 -12.8-13.3-49.5-19-54.1 5.6 37.8-7.4 65.5 14.3 80.1 38.3 -1.1 2.3 0 5 0.5 7.1 -1.2 2.7-2 5.8-4.6 7.1 2.4-9.4-2.1-15.3-9.2-16.8 -14.7 5.7-7 32.4 8.7 31.6 30.5-12.9 13.2-59.5-7.7-69.4 -2.4-1-6.1-0.7-7.7-2.6 0.7-2 4.1-1.4 5.6-2.6 26.7 4.6 44.4 18.2 56.1 37.8 -5.3-0.3-10.8-11.3-18.4-6.1 2.6 17.1 16.7 25 35.2 24.5 2.5-6.9-3.7-8.8-7.1-9.7 16.7-5.7 30.6 7.9 36.2 19.9 9.2-5.1 13.9-14.7 16.8-26 0.7-28.1-24.5-32.4-23.5-66.9 0.3-9.9 4.8-17.1 10.2-23 0 4.7-3.1 9.9-3.6 14.8 -5 48.7 65.3 29.3 70.9 70.4 -5.1-3.7-11-13.1-20.4-7.7 -0.4 4.3 1.1 6.7 2.6 9.2 13.3 5.3 19.5 21.7 13.3 39.3 0.3 1.4 0.8 2.7 1 4.1 9.9 13.6 36.3 7 46.4-1.5 6.9-7.9 12.8-18.3 11.7-31.6 -1.1-13.2-12.2-17.4-19.4-24.5 9.1-0.3 14.8 2.9 20.4 6.1 4.6-12.8-7.6-25.4-12.2-35.7 -8.6-43.5 48.1-58.2 84.7-45.4 0.1 2.5 4.2 3 3.1 5.1 -3.6-2.2-7.5-4-11.7-5.6 -26.3 1.3-44.8 14.7-50.5 38.3 4.4 18.4 23.5 22.1 26.5 41.8 -0.1 9.4-0.8 18.2-6.6 21.9 1.8-3.8 2.9-11.7-2.6-12.2 -14 5.1-6.8 30.9 7.7 30.1 9-1.2 13.3-7.1 19.9-10.7 19.8-24.4 15.6-72.9 42.4-90.3 5.6-1.7 9-8.3 15.3-7.7C582.7 52 569.3 64.3 575.6 80.2c23.7 1.5 38.7-17.5 35.7-39.3 3 1.1 5.5-0.4 9.2 0 21.6-13.1 85.3-14.2 83.2 18.9 -0.3 5.1-3 7.9-5.6 11.7 -4.6 4.7-29.1 10.6-23-1.5 2.8 0.5-0.1 3.5 2.6 4.1 11.2-0.7 19.1-4.7 18.4-17.4 -0.6-1.6-1.7-2.7-2-4.6 -12.5-11.2-40.6-7.1-55.1 2.6 -12.7 8.4-18.1 20.9-24 34.2 -1.4 11 1 19.3 7.7 23.5 26.7-0.8 56.4-15.7 77.6 1 -22.9-5.8-53.8 2-50.5 33.2 -4.1-0.3-6.4-3.6-10.2-3.6 -15.2 0-22.4 35.8-5.1 37.3 18.7 1.6 26.7-25.1 28.6-40.3 3.6 6.5 4.9 15.7 6.1 24 2.6 17.8 1.1 37.2-7.1 50 -13.2 12.1-28.3 27.1-24 52.1 3 4.8 6.1 10.2 12.3 10.7 18.8 1.5 27.4-32.4 18.4-47.5 27.2 16.7 20.3 74.8-3.1 89.3 -1.4-3.5 8.1-14.3 1-18.9 -12.7 8.3-10.8 38.2 2 44.4 7.5-0.7 8.4-8 12.8-11.7 4-13.7 8.4-28.3 14.8-40.8 5.9-11.7 13.8-24.4 28.6-24.5 -5.3 6.4-10.3 13.2-12.2 23 1.2 26.8 17.8 47.8 19.9 76.6 3.5 47.2-17.9 81.3-51.5 95.9 8.6-9.7 20.3-35.5 6.1-47 -23.5 2.2-30.1 41.5-16.8 59.2 3 0.5 3.1-4.1 5.6-2.6 -13.6 32.8-39 54.3-85.2 53.1 -2.4-1.3-5.8-1.7-6.1-5.1 1.7-0.5 3.7 2.7 7.7 1.5 23.1-10.3 44.4-22.2 47-53.1 -5.4 10.7-11.1 21.2-21.4 27.1 -27.3 9.6-68.5 4.5-93.4 17.3 -20.1 10.9-45.9 29.2-37.8 58.7 1.3 1.2 2.4 2.7 3.6 4.1 17 8.4 32.9-4.1 35.2-19.9 -1.7 10.2 9.4 23.6 4.6 36.7 -4.3 9.3-22.7 18.5-30.1 7.1 -10.6 10.4 3.5 22.4 17.4 21.4 15.4-1 27.9-11.8 36.7-18.4 4.2-7.6 10.1-13.3 11.2-24 1.5-14.1-4.9-32.8 8.7-39.3 -6.6 8.7-4.9 30.6 5.1 35.7 51.3 14.2 48-59 97.5-51.5 -15.3 2.2-25.9 9.2-32.7 19.9 -6.3 17.8 2.3 48-12.2 60.7 -15.5 11.4-36.9 16.8-49.5 31.1 -3 5.4-11 16.7-4.1 22.5 16.2-2.4 16.4-20.7 31.1-24.5 -0.4 3.6-5 5.2-7.1 7.7 -17.9 20.2-16 62.2-51 65.3 -35.5-7.1-52.4-37.4-94.4-37.3 -15.4 0.1-26.4 5.1-32.7 15.3 -0.1 1.7-0.8 2.9-0.5 5.1 7.7 9.6 34.5-1.3 24-11.7 5.8-1.3 7.9 5.3 10.2 9.2 -1 16.3-12.1 22.6-23.5 28.6 -19.3 2.3-46.1-3-57.7 8.2 -1.1 4.5-2.3 7.1-0.5 11.7 5.3 3.8 13.5 0.9 18.9 0.5 -12.3 19.7-55.3 5-40.8-20.9 -18.8 3.3-23.5 20.7-29.6 36.7 -8.1 6.9-25.5 6.6-39.3 8.2 -29.6 3.4-55.9 10.4-65.3 33.7 0.6 3.8-1.1 5.4-1 8.7 14.4 18.3 47.5 5.6 66.9-3.6 10.4-4.9 21.9-10.2 33.7-15.3 19.3-8.3 33.8-16.8 60.7-16.8 21.9 0 37.5 4 55.1 9.7 4.8 5.1 11.1 8.7 15.3 14.3 0.9 3.7 2.1 7.1 1.5 12.2 -26.7 74.1-157.2 47.2-156.7 147 0.8 2.3 2.2 4 3.1 6.1 7.4 9.6 20.4 13.4 34.2 15.3 26.8 1.8 36.1-15.6 45.4-32.7 -9.4 7.2-24.3 7.6-34.7 1 -9.7-0.3-16.1 9-25.5 4.1 9.7-0.9 14.6-9.2 13.8-18.9 -5.1-6.7-16 1.2-22.5-0.5 -1.8-17 13.6-25.5 28.1-29.6 -4.9 4.6-11.2 7.9-13.3 15.3 16.1 3.1 27.5-11.9 29.1-23.5 9.8-3.6 28.3-8.8 38.8-3.6 0.3 19.2-17.3 24.9-28.6 34.2 -2 0-4.1 0-6.1 0 9-4.7 16.6-10.6 19.4-21.4 -1.7-3.7-5-0.7-9.2-0.5 -8.6 5.1-15.1 12.5-18.4 23 0 2 0 4.1 0 6.1 1 2.1 2.3 3.9 4.1 5.1 4 0.7 6.7 0.9 9.7 0.5 22.1-9.9 29-35 57.2-38.8 9-0.4 20.3-0.2 22.5 5.6 -10.5-5.1-31.8 4-34.7 15.3 -1.4 5.6 1.2 12.9 5.6 13.8 11.3 0.3 15.8-8 16.3-16.8 6.5 9.1-0.4 24.8-0.5 36.7 -3.2 8-7.7 14.8-13.3 20.4 -8.6 5.6-18.2 10.1-30.6 10.7 12.9-6 24.8-17.8 23-35.2 -10.6 9-14.5 24.6-26 32.7 -17.9 15.3-58 24.5-79.6 6.1 -9.9-11.2-22.3-20.8-20.4-42.4 2.1-23.5 21.5-41.3 35.2-56.6 15.4-17.3 30.6-32.3 40.8-50.5 -2.2-4.3-9.5-3.4-13.8-5.6 -54.4 0.4-120.6 29.5-158.2-7.7 -0.4-1.8-0.9-3.5-2-4.6 -0.3-6.1 0.1-11.4 1.5-15.8 14.4-25.3 54.1-38.1 76-55.6 8.2-6.6 9.1-14.2 0.5-20.9 -1.2-14.9 15.3-18.2 25.5-23 10-4.6 16.9-9.9 21.9-16.8 0.7-6.5-2.5-9.5-6.6-12.2 -48.9-6.2-78.8 17.2-92.9 50.5 -1.7-6.3 3.3-12.8-2.6-16.8 -35.9 3-60.5 33.4-53.6 72.5 -5.2-0.6-6.6-13.8-9.7-19.9 -0.4-45.6 21-73.5 54.1-87.3 1.4 2.1 0 4.1 1 6.1 20.4 2.3 36.1-19.4 32.7-40.8 -1.9-11.7-12-24.9-24-23.5 -14.2 1.7-21.2 24.2-10.7 36.2 8.3 4.4 16.8-1.3 21.4-4.1 -0.6 6-6.6 6.6-10.2 9.7 -33.4 7.5-60.1-8.7-76.6-26 -5.6-9.5-12-18.3-15.3-29.1 -11.6-37.8 14.9-71.3 39.3-83.2 -7.7 10.5-19.1 17.4-20.9 33.7 0.8 27.8 17.6 39.5 46.4 39.3 4.6-1.5 8.1-4.2 11.7-6.6 7.8-18.8-19.5-39.8-1.5-55.1 -0.6 8.5 1.7 21.7 15.3 20.4 5.7-2.3 6-9.9 7.7-16.3 -2.7-17.5-21.4-20.5-34.7-28.6 -16-9.8-26-21.7-32.1-41.3 -1.9 18.9 9.7 28.8 19.4 37.8 -38.7-4.4-73.1-28-82.7-62.8 -5.3-19.4-1.2-45.3 12.2-54.6 -5.3 9.3-4.3 24.3 6.1 27 17-7.6 41.5-56.9 15.3-67.9 -49.1 3-75.7 48.2-84.2 94.9 0.1 18.3 6.7 31.7 14.3 43.9 -8.3-3.1-14-14.1-18.9-23.5 -5.1-9.7-9.6-20.8-11.2-32.7 -4.5-63.4 28.1-114.8 71.4-135.2 5.7 0.1 12.6-1 13.3 4.1 -4.1 0-11.7 2.1-13.8 7.1 1.2 5.3 6 7 9.7 9.7 15.1 3.7 30.5-2.5 38.8-10.2 17.7-16.4 34.9-65.2 1-69.9 -13.1 3.6-21 16.7-18.9 32.2 -6.1-0.4-8.4-8.9-10.2-15.3 -2.4-39.3 16.2-57.6 39.8-70.9 10.7-4 35.4-8.1 37.8 5.6 -17.6-16.5-20.4 28.2 2.6 17.9 15.7-7.1 12.8-37-4.1-43.4 -8.4-3.2-17.4 0.2-23.5 7.7 -19.4-24.2-71.7-9.1-67.9 25.5 -5.2-4.6-4-13.6-4.1-22.5 11.1-35 37.7-54.5 63.3-75 5.6-7.4 13.2-18.1 9.7-28.6C137 25.9 67.1 41.2 54 77.1c2.4 4.3 10.4 6.3 14.8 2 0.3-2.2 1.4-4.2 0-7.7 2.9-0.2 3.6 1.8 5.1 3.1 0.3 12.8-19.7 15.8-26.5 8.2 -2.2-4.9-1.5-11.6-0.5-17.4C71 22.7 148.4-4.7 207.6 16.9 209.5 19.1 213.3 22.1 213.7 24zM480.1 74.1c2.9-6 4.1-13.6 6.6-19.9 -0.1-0.4-0.4-0.6-1-0.5C481.5 56.7 471.5 69.6 480.1 74.1zM572.5 108.2c-4.2-1.4-7.9-0.9-11.7-3.1 -6 11.5-8.7 35.7 4.6 41.3C576.6 141.9 583.7 117.7 572.5 108.2zM645 123c-3.7-4.8-12.1 3.5-9.7 9.7C640.3 133.2 645.4 129.6 645 123zM363.8 153.2c8.2-2 13.9-11 13.3-23.5C368.3 129.2 366.6 144.3 363.8 153.2zM549.6 185.3c9.9 1.5 14.5-12 9.7-19.4C549.3 165.2 547.1 177 549.6 185.3zM216.3 169c-2.5 0.9-3.7 3.1-5.1 5.1 0.1 14.1 3 28.3 15.3 32.7C240.5 199.1 235.8 167.5 216.3 169zM243.3 208.8c-1.1 6 4.8 15.3 12.2 12.2C262.4 211.5 245.2 198.4 243.3 208.8zM520.5 224.6c9.2-2.2 15.2-7.6 18.9-15.3C530 207.7 523.7 216.8 520.5 224.6zM272.9 235.3c5 1.1 12.2 8.3 16.8 2C289.3 228.4 264.7 219.4 272.9 235.3zM490.4 246c5.5 0.1 14.9-2.2 14.3-8.2C497.9 238.6 491.6 239.8 490.4 246zM250.5 258.8c1.7-7-3-11.1-8.2-12.8 -6.3-0.8-9.5 1.4-13.3 3.1 -18.8 20.4-2.6 58 15.3 67.9 -16.8-11.3-34-61.6-2-68.4 4.3 0.5 8.2 7.6 3.1 10.2 -0.9-2-1.1-4.7-4.6-5.1 -15.3 7.5-6.4 36.1 8.7 36.2 -9.6-4.1-21.9-25.8-8.2-33.2 2.3 1.5-1.4 3.4 1 5.1C246.7 262.5 248.5 260.5 250.5 258.8zM519.4 253.2c-35.3-1.5-64.1 21.2-69.4 49.5 10.4-26.5 28.6-45.3 63.8-47 14 2.4 22.8 9.8 24 25C543 265.3 533.3 253.8 519.4 253.2zM582.2 285.3c3.5-16.5-10.4-34.9-20.9-21.4 -0.4 3.2 1.2 4.2 3.1 5.1 2.6 0.5 1.4-2.7 3.1-3.1 17.1 15.2-13.3 39.7-29.1 25 14.6 20.1 47.2-6.1 33.2-24.5 -1.3-1.8-4.4-1.8-5.1-4.1 10 0.8 12.2 9.6 12.3 20.4 -5.6 20.1-17.2 34.2-38.8 38.3C564.8 319.9 576.4 305.5 582.2 285.3zM259.7 266.5c-4.3 3.8-10 12.2-6.6 18.9 -0.7-3.6 1.4-4.4 1.5-7.1 7.4-9.8 19.9-14.4 37.8-13.8 30.9 8.4 47.3 31.3 63.8 54.1C339.4 289 302.7 246.4 259.7 266.5zM508.2 324.1c18.1-2.8 24.5-21.7 23-40.8 -5.8-9.4-15.9-17.3-30.6-14.8C511.8 280.1 514.5 306.5 508.2 324.1zM485.3 272.1c-18.5 9.2-42 34.6-27.1 58.2 7.8 1.7 17.6 2.1 26 0 -4-9.8-9.8-24.9-2-35.2 6 1.5 9.8-2 11.7-6.1C494.5 282.2 490.7 275.6 485.3 272.1zM294.9 298.6c6.9-1.8 10.2-12.3 6.6-19.9 -2.3-0.8-3.4-2.7-5.6-3.6 -26.4-6.9-52.4 21.1-36.2 43.9 8.1 7.4 19 12 33.2 13.3 -5.3-9-10.8-25.1-6.1-37.8C290.1 295.2 290.1 299.3 294.9 298.6zM312.2 331.8c13.7-1.1 25.4-4.2 32.2-12.2 -1.4-18.7-19.5-27.8-31.1-36.2C319.8 297 316.6 319.8 312.2 331.8zM621.5 330.2c-1.4-18.9-13.9-47.3-34.2-29.6 -3.3 5.7-4.6 13.9 1 17.9 3.7-0.5 5.3-0.1 7.7-2 1.1-4.4-3-7.5 0-9.2 -1.2 0.3-4.3 1.3-4.6-0.5 2-5.7 9.7-7.4 14.8-3.6 -5.2-6.4-18.4-1.5-17.4 7.7 1.3 1.6 1.7-2.1 4.1-1 2 2.1 1.8 5.8-1 6.6 -3.1-1-4.8-3.3-5.6-6.6 1.3-8 6.3-12.4 16.3-11.7 26 14.9 17.6 70.7 6.6 95.9C618.6 377.7 622.8 354.2 621.5 330.2zM224.5 323.6c1.5-2.2 3-4.5 4.1-7.1 2.4-24.5-27.6-18.7-35.2-8.7 -5.5 7.3-9.3 21.6-10.2 31.1 -3.6 38.7 14.1 76.6 37.3 92.9 33.7 30.2 86.7 53.7 147.5 41.3 11.1-2.3 21.3-3.3 32.2-3.1 22.9 0.5 44.6 5.1 69.4 6.6 4.8 0.3 9.2 0.4 14.3-2 -3.2 0.4-5.1 0.3-8.7 1 -33.9-4.8-65.8-9.7-102.1-5.6 -6.1 0.7-15.4 2.4-20.9 3.1 -64.8 7.4-115.8-24.5-148-60.2 -18.3-20.9-27.3-73.4-8.7-101 4.1-3.7 7.3-8.4 13.3-10.2 18.9-5.2 22.6 19.5 8.2 22.5 -6.4-0.2-6.9-13.8 1.5-10.2 1.6 5.1-3 4.1-4.1 6.6 7.3 5.6 12.9-8.7 7.7-14.3 -5.3-3.8-15.5-2.8-19.9 1 -17 15.5-10.8 47.7-2.6 68.9 31.3 46.6 102.7 74 174 56.6 11.6-7 28.7-8.4 33.7-21.9 -5.5 6.9-14.3 10.5-21.9 15.3 -40.5 13.7-88 12.2-125-4.1 -36.7-16.2-72.2-44.7-66.3-97 0.8-0.5 1.2-1.4 0.5-2 3-5.2 5.8-10.6 10.7-13.8 2.5-0.7 4.6-1.8 7.1-2.6 3.9 0.7 9.2 0 8.7 5.1 -2.8 1.8-3.9-2.1-7.7-1 -4.3 3.8-4.5 13.2 1.5 15.3C219.1 326.5 221.4 324.7 224.5 323.6zM447 321.1c0.7-5.6 2.4-12.9 2-17.9C448 309.2 446.1 315.9 447 321.1zM606.7 304.2C607 304.6 606.5 304 606.7 304.2L606.7 304.2zM611.3 350.2c-18.6 36.7-48.1 73.3-99 78.1 -37.3 3.5-75.1-5.7-102.6-18.4 36.8 23 103.2 29.2 144.4 8.7 24.7-14.1 41.6-36 57.2-59.2 6.5-15.4 8-37-1-49.5C614.6 321.7 614.8 337.9 611.3 350.2zM591.4 312.9C591.7 313.2 591.2 312.7 591.4 312.9L591.4 312.9zM446.5 322.1C447.1 324.1 447.1 320.1 446.5 322.1L446.5 322.1zM261.7 326.7C263.3 328.1 260.3 325.1 261.7 326.7L261.7 326.7zM458.7 335.9c19.3 5.9 51.3 8.8 56.1-8.7C502.2 339.4 477.1 337.5 458.7 335.9zM310.7 336.9c-18.5 3.8-36.3-2.2-47.5-8.2C270.1 342.6 297.4 344.4 310.7 336.9zM368.9 350.2c-1-13.7-20.7-16.4-38.8-14.8C345.4 335.9 363.5 337.9 368.9 350.2zM441.9 352.7c2.6-3.9 9.5-8.8 10.2-11.2C447 343.2 442.7 348.5 441.9 352.7zM253 346.6C253.4 346.9 252.8 346.4 253 346.6L253 346.6zM616.9 351.7c0.6-0.8 1-4.4 0-5.1C616.7 348 615.1 351.3 616.9 351.7zM373 352.7c1.1 5.3 3.1 9.8 6.1 13.3 14 3.5 20.3 14.7 23.5 29.1 2.9-13.4 7.3-25.4 19.4-29.6 5.1 0.5 8.5-0.7 11.2-2.6 1.5-3.3 4.2-10.7 3.1-13.3C423.1 360 388.1 363.1 373 352.7zM189.3 374.1c2.1-2.2 3.2-5.3 5.1-7.7 -2.3-4.1-2.1-10.8-4.6-14.8C185 356.9 188.9 368.4 189.3 374.1zM616.4 352.7C615.2 354.4 618.1 351.5 616.4 352.7L616.4 352.7zM615.9 355.8C616.2 356.1 615.7 355.6 615.9 355.8L615.9 355.8zM609.3 383.8c4.1-4.4 5.4-12.9 2.6-18.9C604.7 367.9 599.5 380.3 609.3 383.8zM195.9 394c4-1.6 5.2-6 8.7-8.2 -5.1-3.8-6-11.7-10.2-16.3C188.9 378 192.2 386.1 195.9 394zM587.3 399.7c2.1 0.9 3 3.1 4.1 5.1 4.5-4.1 9.8-14.5 4.1-19.9C592.1 389.2 587.5 392.2 587.3 399.7zM208.1 415c6.8-1.7 10.6-6.4 13.3-12.2 -5-4.3-9.4-9.3-14.8-13.3C203.9 399.6 202.4 409 208.1 415zM602.6 390C603 390.3 602.4 389.7 602.6 390L602.6 390zM602.1 405.8c2.1-4.9 4-9.9 6.1-14.8C601.5 391.3 600.4 400 602.1 405.8zM197.4 395.6c0.3 3.9 2.4 6.1 4.6 8.2 -0.2-1.8 0.2-2.9 0.5-4.1 -2.7-1.3-0.8-4.2-2.5-6.1C199.4 394.5 199.4 396 197.4 395.6zM608.8 395.1C609.3 397.1 609.3 393 608.8 395.1L608.8 395.1zM571.5 411.4c1.3 2.7 2.2 5.9 5.1 7.1 5-2.4 9.5-13.5 5.6-18.4C578.6 401.9 573.3 406.2 571.5 411.4zM605.7 403.2C606 403.6 605.5 403 605.7 403.2L605.7 403.2zM226.5 426.2c7.6 0.9 12.1-5.1 16.3-9.2 -7.7-2.8-12.3-8.8-19.4-12.2C221.4 412.6 222.7 421.7 226.5 426.2zM604.2 406.3C604.8 408.3 604.8 404.3 604.2 406.3L604.2 406.3zM599.6 415c2.4-0.8 3.8-5.4 3.6-7.1C602.3 410.5 600.2 412.1 599.6 415zM598.5 410.9C597.3 412.6 600.3 409.6 598.5 410.9L598.5 410.9zM587.3 426.2c3.5-4 7.2-7.7 10.2-12.2C590.6 406.3 585.9 419.4 587.3 426.2zM210.2 417.5c3 1.1 3.8 4.3 6.6 5.6C217.2 416.4 214.6 412.1 210.2 417.5zM409.2 418c1.5 6.5 3.3 12.7 5.6 18.4 6.2-2.5 8.2-9.2 10.2-15.8 -4.3-2-9.1-3.4-13.3-5.6C411.4 416.5 409.8 416.7 409.2 418zM550.6 425.7c2.4 2.4 3.8 5.7 6.1 8.2 6.3-2.2 6.7-10.3 8.2-17.4C560.2 415.8 551 418.8 550.6 425.7zM511.8 471.6c36.7-10.2 70.7-25.9 86.8-55.1C578.4 443.7 547.4 460 511.8 471.6zM392.9 426.2c-1.1 5.9 2.6 10.4 6.1 13.3 5.4-4 8.6-12.8 7.7-21.4C401.1 419.8 398.2 424.2 392.9 426.2zM245.9 438.9c8-1.5 14.2-4.9 15.8-12.8 -6.9-1.5-11.4-5.3-17.4-7.7C241.8 425 242.9 433.8 245.9 438.9zM218.8 426.7c4.4 3.4 8.3 7.3 13.3 10.2 1.1-2 0.3-5.9 0.5-8.7 -7.6 1.4-9.8-2.4-11.2-7.1C220.4 422.8 219.8 424.9 218.8 426.7zM430.1 451.2c9.8-3.1 16.3-12.2 15.3-24.5 -5.7-1.8-11.6-3.3-17.3-5.1C429.7 428.9 426.9 443.9 430.1 451.2zM577.1 423.6C577.4 424 576.9 423.4 577.1 423.6L577.1 423.6zM527.1 431.3c2.1 4.2 3.6 9 7.1 11.7 4.1-3.2 9.9-12.2 6.1-16.8C535.4 427.4 529.2 427.3 527.1 431.3zM566.9 443.5c6.3-2.4 9.9-7.5 14.8-11.2C574 421.3 567.4 433.3 566.9 443.5zM269.9 447.6c7.4-1.1 9.6-7.4 12.2-13.3 -4.9-2.4-10.7-3.9-16.3-5.6C265 436.4 264.4 444.5 269.9 447.6zM456.2 429.3c-5.2 4.9 0.1 17.1 3.6 21.4 7.7-2.1 13.3-10.8 11.7-18.9C466 431.3 461 430.3 456.2 429.3zM233.6 437.9c3.8 3 7.5 6.1 12.2 8.2 1.3-1.2 2.8-3.3 1.5-5.6 -5.8 1.7-4.3-7.9-7.1-10.7C237.3 431.7 234.9 434.2 233.6 437.9zM386.2 430.3C386.6 430.6 386 430.1 386.2 430.3L386.2 430.3zM370.4 435.9c-1.6 9.2 1.4 17.5 7.7 21.4 5.6-5.5 6.7-15.5 8.2-25C382 429.2 374.9 434.3 370.4 435.9zM503.1 432.8c-0.1 5.7 5.6 9.6 8.2 14.3 3.8-2.7 10.4-11 5.6-15.8C512.7 432.2 507.2 431.8 503.1 432.8zM482.2 433.3c1.6 6.2 1.8 13.8 7.1 16.3 4.3-3.8 8.8-9.8 8.2-16.8C492.5 433.1 486.3 432.2 482.2 433.3zM288.3 435.9c-0.4 8.9 1.1 15.9 5.1 20.4 6.5-3.2 10.3-11.8 11.7-18.4C300.2 438.7 292.6 435.6 288.3 435.9zM248.4 447.6c5 2.1 8.5 5.8 13.8 7.7 2-5.8 2.6-9.3 1.5-16.3C256.9 434.7 249.8 441.5 248.4 447.6zM341.3 438.9c0.6 8.3 3.2 14.5 8.7 17.9 5.8-4.1 9.5-10.2 10.2-19.4C353.8 437.8 347.7 438.5 341.3 438.9zM317.9 457.8c7.2-3.9 14.2-7.9 15.3-17.9 -5.8-0.8-12-0.2-19.9-0.5C313.7 446.6 314.2 453.8 317.9 457.8zM339.3 440C339.6 440.3 339.1 439.8 339.3 440L339.3 440zM543.9 457.3c6-2.5 11.1-5.9 16.3-9.2C556 434.3 540.5 444.9 543.9 457.3zM441.4 446.1c-6.2 5.5-11.4 12.1-13.8 21.4 6.3 0.2 12.1 3.5 18.4 2C448.3 460.9 445.5 452.2 441.4 446.1zM266.8 457.3c5.7 2.5 11.5 4.8 17.9 6.6C291.7 448.2 269.4 443.1 266.8 457.3zM387.8 466.5c5.6-1 10.5-0.6 15.3-1.5 -0.9-6.4-3.6-11-5.6-16.3C389 450.4 389.5 458.5 387.8 466.5zM416.9 449.2c-3.5 4.2-4.5 10.8-7.1 15.8 4.3 1.3 8.3 0.1 13.3 1C422.8 458.5 420.5 453.1 416.9 449.2zM526.6 450.7c-3.3 4.4-4.3 10-5.1 15.8 5.9-1.6 11.3-3.7 15.8-6.6C535.3 455.2 533.9 450.1 526.6 450.7zM367.9 469.1c5.1-0.9 9.1-1.9 15.8-2 -0.5-3.4-2.1-5.8-2.5-9.2 -1.3 1-2.7 2-5.6 1.5 -1.9-2.6-3.3-5.5-5.6-7.7C369.4 456.7 367.5 464.8 367.9 469.1zM222.4 482.3c-1-11.4-5.9-17.9-14.8-19.4 -8-1.4-16.2 3.7-24 3.6 -10.7-0.2-11.5-8.7-17.9-13.8 -0.3 0-0.7 0-1 0 -2.7 1.5-2.2 7.6-1.5 10.2 4.9 19.9 34.3 19.9 55.1 24C220.3 486 221 483.8 222.4 482.3zM482.7 454.8C483 455.1 482.5 454.6 482.7 454.8L482.7 454.8zM301 455.3C301.3 455.6 300.8 455.1 301 455.3L301 455.3zM465.9 460.9c-6.9-10.9-14.2 2.3-17.4 9.7 6.8-0.5 11.8 3.5 18.4 1.5C467.3 467.1 465.9 464.1 465.9 460.9zM289.8 465.5c7.4 0.9 14.7 4.7 21.9 4.1C310.6 457.9 292.6 450.5 289.8 465.5zM486.8 457.3C487.1 457.7 486.6 457.1 486.8 457.3L486.8 457.3zM509.2 457.8c-9.6-3.8-10.7 7.8-13.3 14.3 7.2-0.2 12.7-2.2 18.9-3.6C512.9 465 512.1 460.4 509.2 457.8zM313.8 470.6c7.9 0.9 12.5 2.4 20.9 2C335.2 456.7 313.8 452.2 313.8 470.6zM345.9 457.8c-3.1 3.6-4.4 8.9-5.6 14.3 8.3 0.1 15.5-0.8 21.9-2.6C359.4 461.1 355.5 456.2 345.9 457.8zM471.5 472.6c5.7 1.9 12.3-0.4 18.4 0.5 0-5.2-2-9.8-4.1-14.3C476.6 459 475.8 467.6 471.5 472.6zM385.7 467c0.3 0 0.7 0 1 0 0-0.3 0-0.7 0-1 -0.3 0-0.7 0-1 0C385.7 466.3 385.7 466.7 385.7 467zM493.4 472.1C495.5 472.6 493.5 470.6 493.4 472.1L493.4 472.1zM491.4 472.6C493.5 473.1 491.5 471.1 491.4 472.6L491.4 472.6zM485.3 475.2C485.6 475.5 485 475 485.3 475.2L485.3 475.2zM495.5 476.7c1.3-1.1 5.2 0.4 5.6-1.5C498.7 475.2 496.2 475.1 495.5 476.7zM492.9 476.2c-0.8 0.1-1.9-0.2-2 0.5C491.6 476.6 492.7 476.9 492.9 476.2zM155.1 599.2c-0.2-9.4-7.5-15.9-17.4-17.4C137 591.7 145.1 599.9 155.1 599.2zM521 645.1c0.5 1.4 1 2.7 1 4.6 13.6 14.7 42.6 7.1 39.3-18.9 1.4-3.8 4.6-8.4 2.6-12.8C546.1 621.2 528.5 628.2 521 645.1zM252.5 643.6c-1 3.6-4.8 6.5-3.1 11.2 13.5 2.6 28.2-3.1 45.9-1 5.7-1.2 11.3-2.7 14.3-6.6 -0.3-2 0.4-3 1-4.1C303 623 262.3 632 252.5 643.6zM447 654.3c7.1 4.3 25.8 4.2 27.6-4.6C468.1 643.1 449.1 645.8 447 654.3zM361.2 689.5c19.7 4.9 44.2-3.9 49.5-21.4C393 656.4 360.4 668.3 361.2 689.5zM278.6 724.7c8.8-0.5 15.3-3.4 16.3-11.7 -0.9-0.1-1.2-0.9-1-2C284.2 708.7 276.5 716.8 278.6 724.7zM369.9 780.9c-10.6 0.5-22.7 3.2-27 9.7 7.2 2.5 16.4-0.7 25-0.5 11.5 0.2 22.5 3.5 31.6 7.1 8.9 3.6 17 13.4 28.1 8.2C427 783.8 394.5 779.8 369.9 780.9zM310.7 798.7c4.9 0.2 12.9-0.7 14.3-5.6C319.1 791.9 313.3 795 310.7 798.7zM194.4 821.7C194.7 822 194.1 821.5 194.4 821.7L194.4 821.7zM311.7 921.2C312.1 921.6 311.5 921 311.7 921.2L311.7 921.2zM331.1 939.1C331.5 939.4 330.9 938.9 331.1 939.1L331.1 939.1z"/></svg>
