<?xml version="1.0" encoding="utf-8"?>
<!-- Generator: Adobe Illustrator 14.0.0, SVG Export Plug-In . SVG Version: 6.00 Build 43363)  -->
<!DOCTYPE svg PUBLIC "-//W3C//DTD SVG 1.1//EN" "http://www.w3.org/Graphics/SVG/1.1/DTD/svg11.dtd">
<svg version="1.1" xmlns="http://www.w3.org/2000/svg" xmlns:xlink="http://www.w3.org/1999/xlink" x="0px" y="0px" width="500px" height="500px" viewBox="0 0 500 500" enable-background="new 0 0 500 500" xml:space="preserve">
	<g id="body_1_">
		<g id="body">
			<path fill="#FFFFFF" stroke="#000000" stroke-width="5" stroke-linejoin="round" d="M392.159,182.554
				c-18.145-17.441-43.178-39.227-70.414-43.381c-9.696-1.479-19.754-0.587-29.506-0.143c-0.088,0.004-0.188,0.008-0.279,0.012
				c-4.767-2.925-11.066-5.14-15.374-8.162c-13.655-9.576-22.054-21.93-12.657-35.041c5.482-7.65,1.42-16.104,1.237-23.636
				c0,0-9.843-3.971-14.65-6.723c-4.67,5.104-3.23,11.404-2.197,17.218c1.11,6.25-4.244,9.354-8.546,14.431
				c-4.979,5.876-5.856,11.833-7.513,18.29c-1.445,5.629-5.099,11.943-9.398,16.846c-1.852,2.111-4.968,5.188-8.446,7.699
				c-14.045,0.368-25.056,0.998-27.732,2.129c-57.952,24.494-132.494,97.25-124.139,175.724c3.814,35.822,15.339,80.6,37.727,110.024
				c15.06,19.796,32.819,25.359,58.364,28.011c43.763,4.543,93.482-0.98,137.498,0.306c38.812,1.135,77.773-1.902,105.417-29.698
				c30.904-31.074,46.73-77.285,47.4-118.722C449.716,260.318,427.504,216.528,392.159,182.554z"/>
			<g>
				<path fill="#BF5900" stroke="#000000" d="M186.683,142.095c-57.952,24.494-132.494,97.25-124.139,175.724
					c3.814,35.822,15.339,80.6,37.727,110.024c15.06,19.796,32.819,25.359,58.364,28.011c43.763,4.543,93.482-0.98,137.498,0.306		c38.812,1.135,77.773-1.902,105.417-29.698c30.904-31.074,46.73-77.285,47.4-118.722c0.767-47.421-21.445-91.211-56.79-125.186
					c-18.145-17.441-43.178-39.227-70.414-43.381c-9.696-1.479-19.754-0.587-29.506-0.143
					C275.597,139.787,194.61,138.745,186.683,142.095z"/>
				<path fill="#C05A00" d="M186.503,142.224c-57.248,23.907-130.837,95.952-122.551,173.359
					c3.822,35.429,15.53,79.542,37.708,108.535c14.95,19.51,32.549,25.005,57.811,27.628c43.323,4.501,92.498-0.922,136.097,0.356
					c38.348,1.124,77.071-1.908,104.645-29.344c30.926-30.69,46.994-76.332,47.483-117.262
					c0.581-46.806-21.539-90.131-56.616-123.552c-18.077-17.149-43.138-38.543-70.354-42.606c-9.671-1.447-19.696-0.563-29.413-0.125
					C274.623,139.961,194.587,138.848,186.503,142.224z"/>
				<path fill="#C15B00" d="M186.324,142.354C129.79,165.692,57.144,237.006,65.36,313.347c3.83,35.036,15.722,78.485,37.691,107.047
					c14.84,19.225,32.279,24.648,57.257,27.245c42.884,4.459,91.514-0.862,134.697,0.408c37.883,1.111,76.369-1.915,103.873-28.99
					c30.948-30.306,47.257-75.38,47.565-115.802c0.397-46.189-21.562-89.126-56.442-121.918
					c-17.973-16.896-43.099-37.859-70.294-41.83c-9.646-1.417-19.64-0.541-29.321-0.109
					C273.648,140.136,194.565,138.951,186.324,142.354z"/>
				<path fill="#C25C00" d="M186.144,142.482C130.328,165.263,58.621,235.838,66.768,311.11
					c3.838,34.644,15.913,77.429,37.673,105.559c14.73,18.939,32.009,24.293,56.705,26.862c42.443,4.416,90.528-0.804,133.295,0.459
					c37.419,1.101,75.667-1.922,103.102-28.636c30.969-29.921,47.52-74.428,47.646-114.342c0.214-45.574-21.62-88.083-56.269-120.284
					c-17.887-16.624-43.058-37.175-70.233-41.055c-9.621-1.385-19.582-0.517-29.229-0.091
					C272.675,140.311,194.543,139.054,186.144,142.482z"/>
				<path fill="#C35D00" d="M185.964,142.612c-55.09,22.237-125.866,92.057-117.789,166.263
					c3.846,34.25,16.104,76.371,37.656,104.069c14.62,18.653,31.738,23.938,56.151,26.479c42.003,4.375,89.544-0.743,131.895,0.512
					c36.954,1.089,74.896-2,102.329-28.282c30.914-29.617,47.783-73.475,47.729-112.882c0.029-44.959-21.68-87.04-56.095-118.651
					c-17.802-16.352-43.019-36.491-70.173-40.279c-9.597-1.354-19.525-0.494-29.137-0.074
					C271.701,140.486,194.522,139.157,185.964,142.612z"/>
				<path fill="#C45D00" d="M185.784,142.741c-54.359,21.705-124.365,90.775-116.201,163.897
					C73.365,340.504,85.818,382,107.222,409.22c14.469,18.4,31.468,23.582,55.598,26.096c41.564,4.333,88.56-0.685,130.495,0.562
					c36.49,1.077,74.179-2.024,101.558-27.928c30.917-29.252,48.046-72.522,47.812-111.422
					c-0.156-44.344-21.74-85.997-55.921-117.017c-17.718-16.08-42.979-35.807-70.113-39.504c-9.571-1.323-19.468-0.471-29.044-0.057
					C270.728,140.661,194.501,139.26,185.784,142.741z"/>
				<path fill="#C55E00" d="M185.604,142.871c-53.622,21.187-122.739,89.481-114.613,161.532
					c3.775,33.475,16.414,74.314,37.621,101.093c14.351,18.122,31.198,23.227,55.045,25.713c41.125,4.29,87.576-0.625,129.093,0.613
					c36.026,1.066,73.462-2.047,100.786-27.573c30.922-28.888,48.31-71.57,47.895-109.962
					c-0.341-43.728-21.803-84.953-55.748-115.383c-17.633-15.807-42.938-35.123-70.053-38.729c-9.546-1.292-19.411-0.448-28.951-0.04
					C269.753,140.835,194.481,139.363,185.604,142.871z"/>
				<path fill="#C65F00" d="M185.425,143c-52.881,20.677-121.111,88.187-113.025,159.167c3.769,33.083,16.594,73.266,37.603,99.604
					c14.233,17.843,30.928,22.872,54.492,25.33c40.685,4.249,86.592-0.566,127.692,0.664c35.562,1.056,72.746-2.07,100.015-27.219
					c30.928-28.522,48.571-70.617,47.977-108.502c-0.525-43.112-21.865-83.911-55.574-113.75
					c-17.549-15.535-42.897-34.438-69.992-37.953c-9.521-1.26-19.354-0.425-28.859-0.022C268.779,141.011,194.46,139.466,185.425,143
					z"/>
				<path fill="#C76000" d="M185.245,143.129c-52.134,20.18-119.483,86.891-111.438,156.801
					c3.762,32.692,16.773,72.219,37.584,98.115c14.115,17.563,30.658,22.517,53.939,24.946c40.246,4.207,85.607-0.507,126.292,0.717
					c35.097,1.043,72.028-2.094,99.242-26.865c30.934-28.157,48.76-69.662,48.06-107.042c-0.796-42.496-21.929-82.867-55.4-112.116
					c-17.466-15.263-42.858-33.754-69.933-37.178c-9.495-1.229-19.297-0.401-28.767-0.005
					C267.806,141.185,194.441,139.57,185.245,143.129z"/>
				<path fill="#C86100" d="M185.065,143.258C133.683,162.95,67.209,228.855,75.215,297.694
					c3.756,32.302,16.954,71.172,37.567,96.627c13.998,17.285,30.388,22.161,53.386,24.563c39.805,4.165,84.623-0.447,124.891,0.768
					c34.633,1.032,71.314-2.116,98.471-26.511c30.939-27.793,49.014-68.71,48.142-105.582
					c-0.991-41.879-21.994-81.823-55.227-110.482c-17.383-14.991-42.818-33.07-69.873-36.402c-9.471-1.197-19.239-0.378-28.674,0.012
					C266.832,141.36,194.421,139.673,185.065,143.258z"/>
				<path fill="#C96200" d="M184.886,143.388c-50.626,19.215-116.228,84.301-108.263,152.071c3.75,31.91,17.134,70.124,37.55,95.138
					c13.88,17.007,30.117,21.806,52.833,24.181c39.366,4.123,83.638-0.389,123.491,0.818c34.168,1.021,70.599-2.139,97.699-26.156
					c30.946-27.427,49.268-67.757,48.224-104.121c-1.185-41.264-22.06-80.779-55.054-108.85
					c-17.301-14.719-42.778-32.387-69.812-35.627c-9.445-1.166-19.183-0.354-28.582,0.029
					C265.857,141.535,194.402,139.776,184.886,143.388z"/>
				<path fill="#CA6300" d="M184.706,143.517c-49.867,18.745-114.6,83.007-106.675,149.706c3.745,31.52,17.314,69.075,37.533,93.649
					c13.762,16.728,29.847,21.45,52.279,23.798c38.926,4.08,82.654-0.329,122.09,0.87c33.703,1.009,69.885-2.161,96.927-25.803
					c30.954-27.061,49.523-66.803,48.307-102.661c-1.379-40.648-22.126-79.735-54.88-107.216
					c-17.219-14.447-42.738-31.702-69.752-34.851c-9.42-1.135-19.125-0.332-28.489,0.047
					C264.884,141.709,194.383,139.879,184.706,143.517z"/>
				<path fill="#CB6400" d="M184.526,143.646c-49.104,18.286-112.97,81.712-105.087,147.34c3.739,31.129,17.495,68.029,37.514,92.161
					c13.646,16.449,29.577,21.095,51.727,23.414c38.486,4.039,81.67-0.27,120.689,0.922c33.238,0.998,69.172-2.184,96.154-25.447
					c30.964-26.696,49.777-65.851,48.389-101.203c-1.573-40.03-22.192-78.69-54.705-105.582
					c-17.138-14.175-42.705-30.962-69.691-34.076c-9.397-1.084-19.068-0.309-28.397,0.064
					C263.91,141.884,194.365,139.983,184.526,143.646z"/>
				<path fill="#CC6400" d="M184.347,143.776c-48.336,17.835-111.34,80.417-103.5,144.975c3.733,30.738,17.676,66.98,37.497,90.672
					c13.528,16.17,29.307,20.739,51.173,23.031c38.047,3.997,80.686-0.21,119.289,0.974c32.774,0.986,68.458-2.206,95.383-25.095
					c30.972-26.329,50.032-64.896,48.471-99.741c-1.767-39.415-22.263-77.646-54.532-103.949
					c-17.057-13.903-42.665-30.275-69.631-33.301c-9.372-1.052-19.011-0.285-28.305,0.082
					C262.936,142.059,194.346,140.086,184.347,143.776z"/>
				<path fill="#CD6500" d="M184.167,143.905c-47.564,17.393-109.71,79.123-101.913,142.609
					c3.728,30.348,17.857,65.934,37.479,89.184c13.411,15.891,29.036,20.384,50.62,22.648c37.607,3.955,79.702-0.151,117.889,1.024
					c32.31,0.975,67.747-2.227,94.611-24.74c30.981-25.963,50.287-63.942,48.553-98.281c-1.96-38.798-22.331-76.601-54.358-102.315
					c-16.977-13.63-42.625-29.585-69.571-32.524c-9.347-1.02-18.954-0.262-28.212,0.098
					C261.962,142.234,194.328,140.189,184.167,143.905z"/>
				<path fill="#CE6600" d="M183.987,144.034c-46.791,16.957-108.08,77.829-100.325,140.245
					c3.722,29.956,18.039,64.885,37.462,87.694c13.294,15.612,28.766,20.028,50.067,22.266c37.168,3.913,78.716-0.092,116.488,1.075
					c31.846,0.964,67.034-2.247,93.839-24.386c30.991-25.596,50.543-62.988,48.636-96.821
					c-2.152-38.181-22.402-75.556-54.185-100.682c-16.897-13.358-42.585-28.899-69.511-31.75c-9.323-0.987-18.896-0.238-28.12,0.116
					C260.988,142.409,194.31,140.293,183.987,144.034z"/>
				<path fill="#CF6700" d="M183.808,144.164c-46.013,16.531-106.449,76.534-98.737,137.879c3.716,29.565,18.22,63.838,37.444,86.206
					c13.178,15.334,28.496,19.674,49.514,21.883c36.728,3.87,77.732-0.033,115.087,1.127c31.381,0.951,66.323-2.27,93.066-24.032
					c31.004-25.229,50.8-62.035,48.719-95.361c-2.346-37.564-22.476-74.509-54.012-99.048c-16.817-13.086-42.545-28.211-69.45-30.974
					c-9.298-0.955-18.84-0.216-28.027,0.133C260.015,142.583,194.292,140.397,183.808,144.164z"/>
				<path fill="#D06800" d="M183.627,144.293c-45.232,16.111-104.816,75.239-97.149,135.514
					c3.711,29.175,18.401,62.791,37.426,84.719c13.061,15.054,28.226,19.317,48.961,21.498c36.288,3.829,76.748,0.027,113.686,1.179
					c30.917,0.94,65.614-2.289,92.296-23.677c31.016-24.862,51.054-61.081,48.8-93.902c-2.538-36.947-22.548-73.463-53.836-97.414
					c-16.74-12.814-42.506-27.525-69.391-30.199c-9.273-0.922-18.783-0.192-27.936,0.15
					C259.041,142.758,194.275,140.5,183.627,144.293z"/>
				<path fill="#D16900" d="M183.448,144.422c-44.45,15.697-103.185,73.945-95.562,133.149c3.706,28.783,18.583,61.742,37.409,83.229
					c12.945,14.775,27.955,18.962,48.407,21.115c35.849,3.787,75.764,0.086,112.285,1.229c30.452,0.93,64.904-2.308,91.524-23.323
					c31.027-24.495,51.31-60.127,48.882-92.441c-2.729-36.331-22.623-72.416-53.663-95.78c-16.662-12.542-42.465-26.838-69.33-29.424
					c-9.247-0.89-18.726-0.169-27.843,0.168C258.066,142.933,194.258,140.604,183.448,144.422z"/>
				<path fill="#D26A00" d="M183.268,144.552c-43.663,15.291-101.551,72.649-93.974,130.783
					c3.701,28.394,18.766,60.695,37.391,81.741c12.829,14.497,27.685,18.606,47.854,20.732c35.409,3.745,74.78,0.145,110.885,1.281
					c29.988,0.918,64.195-2.328,90.752-22.969c31.041-24.127,51.567-59.174,48.965-90.982c-2.922-35.713-22.7-71.368-53.489-94.147
					c-16.584-12.27-42.426-26.151-69.271-28.648c-9.223-0.858-18.668-0.146-27.75,0.186
					C257.093,143.107,194.241,140.709,183.268,144.552z"/>
				<path fill="#D36B00" d="M183.089,144.681C140.214,159.571,83.17,216.037,90.702,273.1c3.696,28.003,18.948,59.646,37.373,80.252
					c12.712,14.218,27.416,18.252,47.302,20.35c34.969,3.703,73.795,0.204,109.483,1.332c29.523,0.906,63.487-2.348,89.979-22.614
					c31.057-23.759,51.825-58.219,49.049-89.522c-3.113-35.096-22.779-70.32-53.316-92.513
					c-16.509-11.997-42.386-25.464-69.21-27.873c-9.197-0.826-18.611-0.123-27.658,0.202
					C256.119,143.283,194.224,140.813,183.089,144.681z"/>
				<path fill="#D46B00" d="M182.908,144.81c-42.084,14.496-98.285,70.061-90.798,126.053c3.692,27.612,19.132,58.599,37.355,78.764
					c12.597,13.939,27.145,17.896,46.749,19.966c34.529,3.661,72.81,0.265,108.083,1.384c29.059,0.896,62.78-2.365,89.208-22.26
					c31.07-23.39,52.081-57.265,49.13-88.062c-3.304-34.479-22.856-69.272-53.143-90.88c-16.433-11.724-42.346-24.777-69.149-27.097
					c-9.172-0.794-18.554-0.1-27.565,0.219C255.145,143.458,194.208,140.918,182.908,144.81z"/>
				<path fill="#D56C00" d="M182.729,144.939c-41.29,14.108-96.649,68.766-89.211,123.688c3.687,27.223,19.315,57.551,37.338,77.275
					c12.481,13.66,26.875,17.541,46.195,19.583c34.09,3.619,71.826,0.323,106.683,1.436c28.594,0.883,62.073-2.384,88.437-21.906
					c31.085-23.02,52.338-56.31,49.212-86.603c-3.494-33.861-22.938-68.222-52.969-89.246
					c-16.356-11.451-42.306-24.091-69.089-26.321c-9.147-0.762-18.498-0.076-27.474,0.236
					C254.171,143.633,194.191,141.023,182.729,144.939z"/>
				<path fill="#D66D00" d="M182.549,145.069c-40.495,13.726-95.014,67.471-87.623,121.322c3.683,26.832,19.499,56.504,37.32,75.787
					c12.366,13.382,26.605,17.186,45.642,19.2c33.65,3.577,70.842,0.382,105.282,1.486c28.129,0.872,61.367-2.401,87.664-21.552
					c31.103-22.649,52.597-55.355,49.295-85.143c-3.685-33.244-23.02-67.172-52.795-87.612
					c-16.283-11.178-42.266-23.405-69.029-25.546c-9.122-0.73-18.439-0.053-27.381,0.254
					C253.197,143.807,194.176,141.128,182.549,145.069z"/>
				<path fill="#D76E00" d="M182.369,145.198c-39.697,13.349-93.377,66.177-86.035,118.957c3.678,26.441,19.683,55.454,37.302,74.298
					c12.251,13.103,26.335,16.83,45.09,18.817c33.21,3.535,69.857,0.441,103.881,1.538c27.665,0.86,60.661-2.419,86.892-21.198
					c31.119-22.28,52.855-54.401,49.378-83.683c-3.875-32.625-23.104-66.121-52.622-85.979
					c-16.209-10.904-42.226-22.719-68.969-24.771c-9.096-0.698-18.383-0.03-27.288,0.271
					C252.223,143.982,194.16,141.233,182.369,145.198z"/>
				<path fill="#D86F00" d="M182.189,145.328c-38.897,12.978-91.742,64.883-84.448,116.592c3.674,26.05,19.868,54.405,37.285,72.809
					c12.136,12.824,26.065,16.475,44.537,18.434c32.771,3.493,68.873,0.502,102.48,1.59c27.201,0.85,59.956-2.435,86.12-20.844
					c31.137-21.908,53.113-53.446,49.46-82.223c-4.063-32.008-23.188-65.069-52.448-84.345
					c-16.137-10.631-42.186-22.034-68.908-23.996c-9.071-0.666-18.325-0.006-27.196,0.289
					C251.249,144.157,194.144,141.339,182.189,145.328z"/>
				<path fill="#D97000" d="M182.01,145.457c-38.096,12.611-90.104,63.587-82.86,114.227c3.67,25.66,20.053,53.356,37.267,71.32
					c12.021,12.545,25.794,16.119,43.983,18.051c32.331,3.451,67.889,0.561,101.079,1.641c26.737,0.838,59.253-2.45,85.35-20.49
					c31.155-21.536,53.371-52.491,49.541-80.762c-4.253-31.39-23.274-64.016-52.273-82.711
					c-16.065-10.357-42.146-21.347-68.849-23.22c-9.046-0.634-18.269,0.017-27.104,0.305
					C250.275,144.332,194.129,141.445,182.01,145.457z"/>
				<path fill="#DA7100" d="M181.83,145.586c-37.292,12.25-88.464,62.293-81.272,111.861c3.667,25.27,20.238,52.309,37.249,69.832
					c11.907,12.266,25.524,15.764,43.43,17.668c31.892,3.409,66.904,0.619,99.68,1.691c26.271,0.827,58.549-2.465,84.576-20.135
					c31.175-21.164,53.632-51.536,49.624-79.303c-4.441-30.772-23.362-62.961-52.1-81.077
					c-15.994-10.083-42.105-20.663-68.788-22.445c-9.021-0.603-18.212,0.041-27.012,0.323
					C249.302,144.506,194.114,141.551,181.83,145.586z"/>
				<path fill="#DB7200" d="M181.65,145.716c-36.487,11.895-86.826,60.999-79.685,109.496c3.663,24.879,20.424,51.26,37.232,68.343
					c11.793,11.986,25.253,15.408,42.876,17.285c31.452,3.367,65.92,0.679,98.278,1.743c25.808,0.814,57.847-2.48,83.805-19.781
					c31.195-20.791,53.892-50.582,49.707-77.842c-4.629-30.155-23.452-61.907-51.927-79.445
					c-15.923-9.807-42.064-19.976-68.728-21.668c-8.996-0.571-18.153,0.081-26.919,0.34
					C248.329,144.718,194.099,141.658,181.65,145.716z"/>
				<path fill="#DC7200" d="M181.471,145.845c-35.681,11.542-85.187,59.704-78.098,107.131c3.661,24.489,20.611,50.211,37.214,66.854
					c11.68,11.708,24.983,15.053,42.324,16.902c31.012,3.324,64.936,0.737,96.877,1.794c25.343,0.804,57.145-2.493,83.033-19.427
					c31.216-20.418,54.152-49.626,49.789-76.383c-4.816-29.536-23.544-60.85-51.753-77.81c-15.854-9.532-42.024-19.292-68.668-20.894
					c-8.971-0.539-18.096,0.104-26.826,0.357C247.354,144.892,194.085,141.765,181.471,145.845z"/>
				<path fill="#DD7300" d="M181.291,145.975c-34.872,11.194-83.545,58.409-76.51,104.765c3.657,24.1,20.798,49.162,37.197,65.366
					c11.566,11.429,24.713,14.697,41.771,16.52c30.572,3.282,63.951,0.797,95.477,1.846c24.879,0.792,56.443-2.508,82.262-19.073
					c31.237-20.042,54.412-48.672,49.871-74.923c-5.003-28.918-23.638-59.792-51.579-76.176
					c-15.786-9.257-41.984-18.608-68.607-20.119c-8.946-0.508-18.039,0.128-26.734,0.375
					C246.381,145.068,194.071,141.873,181.291,145.975z"/>
				<path fill="#DE7400" d="M181.111,146.104c-34.063,10.851-81.904,57.115-74.923,102.4c3.655,23.709,20.985,48.113,37.179,63.877
					c11.453,11.149,24.443,14.342,41.218,16.137c30.132,3.24,62.967,0.855,94.076,1.896c24.414,0.781,55.742-2.52,81.489-18.719
					c31.26-19.667,54.674-47.716,49.953-73.462c-5.188-28.301-23.731-58.734-51.405-74.544c-15.719-8.98-41.943-17.922-68.547-19.343
					c-8.921-0.477-17.981,0.151-26.642,0.392C245.407,145.243,194.056,141.98,181.111,146.104z"/>
				<path fill="#DF7500" d="M180.932,146.232c-33.251,10.51-80.261,55.82-73.335,100.035c3.653,23.319,21.173,47.063,37.161,62.389
					c11.34,10.87,24.173,13.986,40.664,15.753c29.693,3.199,61.983,0.916,92.676,1.948c23.949,0.77,55.042-2.53,80.718-18.364
					c31.283-19.291,54.936-46.761,50.035-72.002c-5.374-27.682-23.828-57.673-51.231-72.91
					c-15.652-8.703-41.903-17.237-68.486-18.567c-8.896-0.445-17.925,0.174-26.55,0.409
					C244.433,145.417,194.042,142.088,180.932,146.232z"/>
				<path fill="#DF7600" d="M180.752,146.362c-32.439,10.175-78.616,54.526-71.747,97.67c3.651,22.929,21.361,46.014,37.144,60.899
					c11.228,10.59,23.902,13.632,40.11,15.37c29.253,3.157,60.999,0.975,91.275,1.999c23.485,0.759,54.343-2.541,79.945-18.01
					c31.307-18.915,55.199-45.806,50.118-70.542c-5.559-27.064-23.928-56.612-51.058-71.276
					c-15.587-8.425-41.863-16.554-68.427-17.792c-8.871-0.414-17.867,0.197-26.457,0.427
					C243.459,145.593,194.029,142.198,180.752,146.362z"/>
				<path fill="#E07700" d="M180.572,146.491c-31.625,9.843-76.971,53.231-70.16,95.305c3.649,22.539,21.55,44.964,37.126,59.411
					c11.117,10.311,23.633,13.276,39.558,14.987c28.814,3.114,60.014,1.033,89.875,2.051c23.021,0.747,53.644-2.553,79.174-17.656
					c31.331-18.535,55.461-44.852,50.2-69.082c-5.742-26.446-24.028-55.547-50.884-69.643c-15.522-8.147-41.823-15.87-68.367-17.017
					c-8.846-0.382-17.811,0.22-26.364,0.443C242.485,145.767,194.016,142.307,180.572,146.491z"/>
				<path fill="#E17800" d="M180.393,146.621c-30.81,9.516-75.325,51.936-68.572,92.939c3.647,22.149,21.74,43.913,37.108,57.922
					c11.004,10.031,23.362,12.921,39.004,14.604c28.374,3.073,59.03,1.094,88.474,2.104c22.556,0.734,52.945-2.562,78.401-17.303
					c31.356-18.157,55.726-43.896,50.283-67.622c-5.925-25.829-24.13-54.481-50.711-68.009
					c-15.458-7.867-41.783-15.186-68.307-16.241c-8.819-0.351-17.753,0.244-26.271,0.461
					C241.512,145.942,194.002,142.417,180.393,146.621z"/>
				<path fill="#E27900" d="M180.212,146.75c-29.993,9.191-73.676,50.642-66.984,90.574c3.646,21.759,21.93,42.861,37.09,56.434
					c10.893,9.752,23.092,12.565,38.452,14.221c27.935,3.031,58.045,1.152,87.073,2.154c22.092,0.724,52.246-2.57,77.63-16.948
					c31.382-17.775,55.99-42.941,50.365-66.163c-6.107-25.211-24.234-53.413-50.537-66.375
					c-15.395-7.586-41.742-14.502-68.246-15.466c-8.794-0.32-17.696,0.267-26.18,0.478
					C240.538,146.116,193.99,142.528,180.212,146.75z"/>
				<path fill="#E37900" d="M180.032,146.879c-29.175,8.87-72.027,49.346-65.396,88.208c3.646,21.369,22.122,41.812,37.073,54.945
					c10.782,9.472,22.822,12.21,37.898,13.838c27.495,2.988,57.061,1.212,85.672,2.205c21.628,0.712,51.551-2.578,76.858-16.594
					c31.409-17.396,56.257-41.987,50.448-64.703c-6.288-24.592-24.339-52.344-50.363-64.742
					c-15.333-7.305-41.702-13.815-68.187-14.689c-8.77-0.29-17.64,0.289-26.087,0.495
					C239.563,146.292,193.977,142.64,180.032,146.879z"/>
				<path fill="#E47A00" d="M179.853,147.009c-28.357,8.553-70.377,48.052-63.809,85.843c3.646,20.979,22.312,40.76,37.055,53.457
					c10.672,9.191,22.551,11.854,37.345,13.455c27.055,2.946,56.077,1.271,84.272,2.256c21.162,0.701,50.853-2.583,76.086-16.239
					c31.437-17.013,56.522-41.032,50.53-63.242c-6.469-23.976-24.447-51.271-50.19-63.108c-15.272-7.022-41.661-13.133-68.125-13.915
					c-8.744-0.258-17.583,0.312-25.995,0.513C238.59,146.467,193.965,142.753,179.853,147.009z"/>
				<path fill="#E57B00" d="M179.673,147.138c-27.537,8.238-68.724,46.757-62.221,83.478c3.646,20.59,22.505,39.708,37.037,51.968
					c10.562,8.911,22.282,11.499,36.792,13.072c26.616,2.904,55.092,1.33,82.871,2.308c20.699,0.689,50.157-2.59,75.314-15.886
					c31.464-16.63,56.791-40.078,50.613-61.782c-6.648-23.358-24.557-50.196-50.017-61.474c-15.213-6.739-41.621-12.45-68.065-13.14
					c-8.719-0.227-17.525,0.319-25.902,0.53C237.615,146.604,193.953,142.866,179.673,147.138z"/>
				<path fill="#E67C00" d="M179.494,147.267c-26.717,7.927-67.071,45.461-60.633,81.113c3.647,20.201,22.698,38.655,37.02,50.479
					c10.453,8.63,22.011,11.145,36.239,12.688c26.176,2.863,54.108,1.39,81.471,2.359c20.233,0.679,49.461-2.594,74.542-15.531
					c31.493-16.244,57.058-39.123,50.694-60.322c-6.826-22.741-24.666-49.12-49.842-59.841
					c-15.153-6.453-41.582-11.768-68.006-12.364c-8.693-0.196-17.468,0.342-25.81,0.547
					C236.641,146.779,193.941,142.98,179.494,147.267z"/>
				<path fill="#E77D00" d="M179.313,147.396c-25.895,7.619-65.417,44.167-59.046,78.748c3.65,19.812,22.893,37.603,37.002,48.991
					c10.345,8.35,21.741,10.789,35.687,12.306c25.736,2.821,53.124,1.449,80.069,2.411c19.77,0.666,48.767-2.599,73.771-15.178
					c31.523-15.858,57.328-38.169,50.777-58.862c-7.003-22.124-24.778-48.04-49.668-58.207
					c-15.096-6.167-41.542-11.085-67.945-11.589c-8.669-0.166-17.411,0.365-25.718,0.564
					C235.667,146.954,193.931,143.096,179.313,147.396z"/>
				<path fill="#E87E00" d="M179.134,147.526c-25.072,7.313-63.759,42.871-57.458,76.382c3.652,19.421,23.087,36.549,36.984,47.502
					c10.237,8.067,21.471,10.434,35.133,11.923c25.297,2.778,52.139,1.508,78.669,2.462c19.305,0.655,48.072-2.601,72.999-14.823
					c31.552-15.471,57.598-37.216,50.859-57.402c-7.18-21.508-24.893-46.957-49.494-56.573
					c-15.038-5.878-41.501-10.402-67.886-10.813c-8.644-0.135-17.354,0.388-25.625,0.582
					C234.693,147.128,193.92,143.213,179.134,147.526z"/>
				<path fill="#E97F00" d="M178.954,147.655c-24.249,7.012-62.101,41.575-55.871,74.017c3.655,19.032,23.283,35.495,36.967,46.014
					c10.129,7.786,21.201,10.078,34.58,11.539c24.856,2.737,51.155,1.568,77.268,2.514c18.841,0.644,47.378-2.603,72.227-14.469
					c31.583-15.082,57.869-36.263,50.942-55.942c-7.354-20.893-25.008-45.871-49.321-54.94c-14.981-5.588-41.46-9.719-67.824-10.038
					c-8.618-0.104-17.297,0.412-25.533,0.599C233.72,147.304,193.91,143.331,178.954,147.655z"/>
				<path fill="#EA8000" d="M178.774,147.784c-23.425,6.711-60.439,40.28-54.283,71.652c3.658,18.642,23.479,34.441,36.949,44.525
					c10.022,7.503,20.931,9.723,34.027,11.156c24.417,2.695,50.17,1.627,75.868,2.564c18.376,0.633,46.684-2.603,71.455-14.114
					c31.614-14.692,58.142-35.312,51.024-54.482c-7.528-20.278-25.125-44.783-49.147-53.307c-14.927-5.296-41.421-9.037-67.765-9.262
					c-8.593-0.073-17.24,0.435-25.44,0.616C232.745,147.479,193.9,143.451,178.774,147.784z"/>
				<path fill="#EB8000" d="M178.595,147.914c-22.6,6.415-58.777,38.984-52.695,69.287c3.663,18.252,23.677,33.385,36.931,43.036
					c9.917,7.221,20.661,9.367,33.474,10.773c23.977,2.652,49.186,1.686,74.467,2.616c17.911,0.621,45.99-2.602,70.684-13.761
					c31.646-14.301,58.416-34.359,51.106-53.022c-7.701-19.663-25.244-43.69-48.974-51.672c-14.873-5.003-41.38-8.355-67.705-8.487
					c-8.566-0.043-17.182,0.458-25.348,0.633C231.771,147.653,193.89,143.572,178.595,147.914z"/>
				<path fill="#EC8100" d="M178.415,148.043c-21.773,6.121-57.112,37.688-51.107,66.921c3.669,17.863,23.875,32.329,36.913,41.548
					c9.81,6.937,20.391,9.012,32.921,10.391c23.538,2.61,48.202,1.745,73.066,2.667c17.446,0.61,45.298-2.599,69.911-13.405
					c31.678-13.908,58.691-33.41,51.189-51.563c-7.872-19.05-25.362-42.595-48.801-50.039c-14.818-4.706-41.34-7.674-67.644-7.712
					c-8.543-0.012-17.126,0.481-25.256,0.651C230.798,147.827,193.882,143.695,178.415,148.043z"/>
				<path fill="#ED8200" d="M178.235,148.172c-20.947,5.829-55.444,36.392-49.52,64.557c3.675,17.472,24.073,31.271,36.896,40.06
					c9.705,6.651,20.12,8.655,32.368,10.007c23.097,2.568,47.217,1.804,71.666,2.719c16.982,0.598,44.604-2.598,69.139-13.053
					c31.71-13.513,58.968-32.458,51.271-50.103c-8.042-18.437-25.481-41.496-48.626-48.405c-14.765-4.408-41.3-6.991-67.584-6.936
					c-8.517,0.018-17.067,0.504-25.163,0.668C229.824,148.002,193.873,143.82,178.235,148.172z"/>
				<path fill="#EE8300" d="M178.056,148.302c-20.12,5.541-53.775,35.094-47.933,62.19c3.683,17.083,24.274,30.213,36.878,38.571
					c9.602,6.367,19.85,8.3,31.815,9.624c22.658,2.526,46.233,1.863,70.264,2.77c16.519,0.587,43.913-2.592,68.368-12.697
					c31.742-13.116,59.245-31.511,51.354-48.644c-8.211-17.826-25.604-40.394-48.452-46.771c-14.713-4.107-41.259-6.311-67.523-6.161
					c-8.492,0.048-17.012,0.528-25.071,0.685C228.85,148.177,193.865,143.948,178.056,148.302z"/>
				<path fill="#EF8400" d="M177.875,148.431c-19.293,5.253-52.102,33.797-46.344,59.826c3.692,16.692,24.476,29.152,36.86,37.082
					c9.498,6.082,19.58,7.945,31.261,9.242c22.219,2.484,45.249,1.922,68.865,2.82c16.053,0.575,43.22-2.587,67.596-12.343
					c31.775-12.718,59.524-30.563,51.436-47.183c-8.378-17.215-25.726-39.286-48.279-45.138c-14.66-3.804-41.218-5.63-67.463-5.385
					c-8.467,0.079-16.954,0.551-24.979,0.702C227.876,148.352,193.858,144.079,177.875,148.431z"/>
				<path fill="#F08500" d="M177.696,148.561c-18.465,4.969-50.427,32.5-44.757,57.46c3.703,16.302,24.678,28.09,36.843,35.593
					c9.395,5.794,19.31,7.59,30.708,8.859c21.778,2.442,44.265,1.982,67.463,2.873c15.59,0.563,42.528-2.581,66.824-11.989
					c31.81-12.318,59.805-29.617,51.519-45.723c-8.544-16.607-25.847-38.176-48.105-43.505c-14.607-3.497-41.179-4.948-67.403-4.609
					c-8.441,0.109-16.896,0.574-24.886,0.72C226.902,148.527,193.852,144.213,177.696,148.561z"/>
				<path fill="#F18600" d="M177.516,148.689c-17.635,4.687-48.749,31.201-43.169,55.095c3.715,15.912,24.881,27.028,36.825,34.105
					c9.293,5.506,19.04,7.234,30.155,8.475c21.339,2.4,43.28,2.041,66.063,2.924c15.124,0.553,41.836-2.573,66.052-11.635
					c31.844-11.917,60.087-28.672,51.601-44.263c-8.709-16-25.97-37.061-47.932-41.871c-14.557-3.188-41.139-4.269-67.343-3.835
					c-8.417,0.139-16.84,0.598-24.794,0.737C225.929,148.702,193.847,144.35,177.516,148.689z"/>
				<path fill="#F28700" d="M177.337,148.819c-16.807,4.407-47.067,29.902-41.582,52.729c3.729,15.521,25.085,25.964,36.807,32.616
					c9.192,5.217,18.769,6.879,29.603,8.092c20.899,2.358,42.295,2.101,64.662,2.975c14.66,0.541,41.145-2.564,65.28-11.281
					c31.877-11.514,60.371-27.729,51.684-42.803c-8.872-15.394-26.091-35.941-47.759-40.236c-14.504-2.875-41.098-3.588-67.282-3.06
					c-8.392,0.169-16.782,0.621-24.701,0.754C224.955,148.876,193.843,144.492,177.337,148.819z"/>
				<path fill="#F38700" d="M177.157,148.948c-15.977,4.129-45.382,28.603-39.994,50.364c3.746,15.129,25.291,24.897,36.79,31.127
					c9.091,4.926,18.499,6.523,29.049,7.709c20.459,2.316,41.311,2.159,63.261,3.026c14.195,0.53,40.453-2.553,64.509-10.926
					c31.911-11.108,60.674-26.801,51.766-41.343c-9.016-14.802-26.213-34.819-47.585-38.604c-14.453-2.56-41.058-2.907-67.222-2.284
					c-8.367,0.199-16.726,0.644-24.609,0.771C223.98,149.051,193.839,144.637,177.157,148.948z"/>
				<path fill="#F48800" d="M176.977,149.078c-15.147,3.853-43.692,27.302-38.406,47.999c3.764,14.738,25.497,23.829,36.772,29.639
					c8.991,4.633,18.229,6.168,28.496,7.326c20.02,2.274,40.327,2.219,61.86,3.078c13.731,0.518,39.761-2.542,63.736-10.573
					c31.945-10.701,60.938-25.848,51.849-39.883c-9.201-14.187-26.334-33.691-47.411-36.97c-14.4-2.24-41.018-2.226-67.162-1.508
					c-8.341,0.229-16.668,0.667-24.517,0.789C223.007,149.226,193.837,144.789,176.977,149.078z"/>
				<path fill="#F58900" d="M176.797,149.207c-14.317,3.58-42,26.001-36.819,45.634c3.786,14.345,25.704,22.758,36.755,28.15
					c8.892,4.338,17.958,5.813,27.942,6.943c19.58,2.233,39.343,2.278,60.46,3.129c13.267,0.506,39.069-2.528,62.965-10.218
					c31.979-10.292,61.229-24.916,51.931-38.423c-9.356-13.591-26.454-32.559-47.237-35.336c-14.348-1.917-40.979-1.547-67.103-0.732
					c-8.315,0.259-16.611,0.69-24.424,0.806C222.033,149.401,193.837,144.946,176.797,149.207z"/>
				<path fill="#F68A00" d="M176.618,149.336c-13.487,3.308-40.303,24.698-35.231,43.269c3.81,13.951,25.911,21.685,36.737,26.661
					c8.793,4.042,17.688,5.458,27.389,6.56c19.141,2.19,38.358,2.337,59.06,3.181c12.803,0.495,38.378-2.514,62.193-9.865
					c32.014-9.881,61.517-23.981,52.012-36.962c-9.516-12.996-26.572-31.422-47.062-33.703c-14.294-1.591-40.94-0.917-67.042,0.042
					c-8.292,0.273-16.555,0.714-24.332,0.824C221.059,149.576,193.837,145.112,176.618,149.336z"/>
				<path fill="#F78B00" d="M176.438,149.465c-12.656,3.039-38.602,23.395-33.644,40.903c3.839,13.557,26.12,20.61,36.72,25.173
					c8.695,3.743,17.417,5.102,26.836,6.177c18.701,2.148,37.374,2.396,57.658,3.232c12.339,0.484,37.687-2.499,61.422-9.51
					c32.049-9.467,61.807-23.052,52.095-35.503c-9.675-12.403-26.688-30.28-46.89-32.069c-14.238-1.261-40.899-0.233-66.981,0.818
					c-8.267,0.304-16.497,0.736-24.239,0.84C220.085,149.75,193.841,145.287,176.438,149.465z"/>
				<path fill="#F88C00" d="M176.258,149.595c-11.827,2.771-36.895,22.089-32.056,38.538c3.872,13.161,26.328,19.531,36.702,23.684
					c8.599,3.442,17.148,4.747,26.283,5.794c18.261,2.106,36.39,2.456,56.258,3.283c11.873,0.473,36.993-2.481,60.649-9.156
					c32.082-9.052,62.096-22.126,52.177-34.043c-9.833-11.814-26.802-29.134-46.716-30.435c-14.184-0.927-40.859,0.451-66.921,1.593
					c-8.242,0.336-16.44,0.76-24.147,0.858C219.111,149.926,193.847,145.473,176.258,149.595z"/>
				<path fill="#F98D00" d="M176.079,149.724c-10.997,2.506-35.183,20.781-30.468,36.173c3.91,12.762,26.536,18.45,36.684,22.196
					c8.501,3.138,16.878,4.391,25.73,5.411c17.821,2.064,35.405,2.515,54.856,3.334c11.409,0.461,36.301-2.463,59.878-8.802
					c32.116-8.635,62.387-21.203,52.26-32.583c-9.991-11.228-26.914-27.984-46.542-28.801c-14.126-0.588-40.82,1.135-66.861,2.369
					c-8.217,0.367-16.382,0.782-24.055,0.875C218.137,150.1,193.855,145.673,176.079,149.724z"/>
				<path fill="#FA8E00" d="M175.899,149.854c-10.167,2.242-33.466,19.471-28.881,33.808c3.954,12.362,26.744,17.365,36.666,20.707
					c8.404,2.831,16.607,4.036,25.177,5.027c17.382,2.022,34.421,2.575,53.457,3.386c10.944,0.45,35.607-2.443,59.105-8.447
					c32.148-8.215,62.677-20.284,52.342-31.123c-10.151-10.646-27.021-26.831-46.369-27.168c-14.065-0.246-40.779,1.819-66.801,3.145
					c-8.19,0.398-16.325,0.806-23.962,0.892C217.164,150.275,193.866,145.891,175.899,149.854z"/>
				<path fill="#FB8E00" d="M175.719,149.983c-9.338,1.98-31.742,18.158-27.292,31.442c4.006,11.959,26.952,16.277,36.648,19.219
					c8.306,2.52,16.337,3.68,24.624,4.645c16.942,1.98,33.437,2.633,52.056,3.437c10.48,0.438,34.915-2.421,58.334-8.093
					c32.183-7.794,62.967-19.369,52.424-29.663c-10.311-10.067-27.126-25.672-46.194-25.535c-14.004,0.101-40.74,2.503-66.74,3.919
					c-8.167,0.43-16.269,0.83-23.87,0.91C216.189,150.45,193.881,146.131,175.719,149.983z"/>
				<path fill="#FC8F00" d="M175.54,150.112c-8.511,1.721-30.014,16.841-25.706,29.077c4.067,11.551,27.159,15.185,36.631,17.73
					c8.208,2.206,16.067,3.325,24.07,4.261c16.503,1.939,32.452,2.693,50.656,3.489c10.015,0.427,34.221-2.399,57.562-7.739
					c32.216-7.37,63.255-18.459,52.506-28.203c-10.472-9.493-27.228-24.509-46.021-23.901c-13.94,0.451-40.7,3.188-66.681,4.696
					c-8.141,0.46-16.211,0.853-23.777,0.926C215.216,150.625,193.901,146.4,175.54,150.112z"/>
				<path fill="#FD9000" d="M175.359,150.241c-7.686,1.463-28.277,15.521-24.118,26.712c4.14,11.138,27.364,14.089,36.613,16.241
					c8.11,1.887,15.797,2.97,23.518,3.878c16.062,1.896,31.467,2.752,49.254,3.54c9.551,0.416,33.527-2.375,56.79-7.385
					c32.248-6.944,63.544-17.552,52.589-26.744c-10.636-8.923-27.323-23.342-45.847-22.267c-13.874,0.806-40.66,3.871-66.621,5.47
					c-8.115,0.492-16.154,0.876-23.685,0.944C214.242,150.799,193.927,146.706,175.359,150.241z"/>
				<path fill="#FE9100" d="M175.18,150.371c-6.863,1.208-26.535,14.193-22.531,24.346c4.227,10.717,27.568,12.989,36.596,14.753
					c8.01,1.564,15.526,2.614,22.965,3.495c15.623,1.855,30.483,2.812,47.854,3.591c9.087,0.404,32.839-2.318,56.019-7.031
					c32.288-6.471,63.829-16.65,52.671-25.283c-10.802-8.357-27.414-22.173-45.674-20.634c-13.802,1.164-40.619,4.556-66.56,6.247
					c-8.091,0.523-16.097,0.899-23.593,0.961C213.268,150.974,193.959,147.067,175.18,150.371z"/>
				<path fill="#FF9200" d="M322,143c-18,2-58.562,7.763-90,8c-19.706,0.149-38-3.5-57-0.5c-6.044,0.955-24.785,12.859-20.942,21.981
					c4.332,10.285,27.768,11.885,36.578,13.264c24.689,3.864,43.921,5.619,68.865,6.755c20.677,0.941,127-16,108-30.5
					C356.27,154.583,340,141,322,143z"/>
			</g>
			<linearGradient id="SVGID_1_" gradientUnits="userSpaceOnUse" x1="254.0781" y1="457.6797" x2="254.0781" y2="290.6543">
				<stop  offset="0" style="stop-color:#FF6400"/>
				<stop  offset="1" style="stop-color:#5F3000"/>
			</linearGradient>
			<path fill="url(#SVGID_1_)" d="M432.486,342.6c-23.298,10.596-48.539,16.942-73.633,21.509
				c-57.004,10.372-118.138,12.303-174.599-2.299c-37.697-9.749-71.397-28.695-101.396-53.306c-6.79-5.57-13.425-11.494-19.501-17.85
				c-1.121,8.933-1.287,18.009-0.315,27.164c3.804,35.822,15.299,80.6,37.629,110.024c15.021,19.796,32.733,25.359,58.211,28.011
				c43.649,4.543,93.24-0.98,137.14,0.306c38.711,1.135,77.57-1.902,105.144-29.698c23.972-24.166,38.843-57.486,44.586-90.598
				C441.417,338.338,436.953,340.568,432.486,342.6z"/>
			<path fill="none" stroke="#000000" stroke-width="2" stroke-linecap="round" d="M205.25,140.25
				c-11.729,6.872-19.829,21.256-27.327,32.126c-16.821,24.387-26.831,53.798-34.06,82.308c-7.854,30.971-6.359,62.069-3.013,93.58
				c2.817,26.534,9.629,50.668,21.205,74.691c6.87,14.258,14.199,22.934,24.611,34.461"/>
			<path fill="none" stroke="#000000" stroke-width="2" stroke-linecap="round" d="M240.951,140.487
				c-12.194,12.479-18.528,30.117-24.566,46.121c-11.088,29.389-18.029,59.598-19.913,90.986
				c-3.129,52.149-0.901,106.828,14.652,157.019c2.752,8.882,5.486,14.875,10.876,22.472"/>
			<path fill="none" stroke="#000000" stroke-width="2" stroke-linecap="round" d="M270.22,135.609
				c18.229,34.834,22.624,73.24,26.886,112.021c6.538,59.484,7.122,118.88-5.217,177.701c-2.203,10.501-5.878,20.56-8.255,31.009"/>
			<path fill="none" stroke="#000000" stroke-width="2" stroke-linecap="round" d="M300.5,137.5
				c41.7,30.121,56.975,85.105,63.528,134.023c6.995,52.214,0.13,107.331-20.906,155.744c-4.425,10.186-9.464,18.837-14.955,28.483"
				/>
		</g>
		<g id="stem">
			<path fill="#7F4D00" stroke="#000000" stroke-width="3" stroke-linejoin="round" d="M206.519,143.97
				c6.12-1.462,13.131-8.041,16.343-11.704c4.299-4.903,7.953-11.217,9.398-16.846c1.657-6.457,2.535-12.414,7.513-18.29
				c4.302-5.078,9.657-8.181,8.546-14.431c-1.034-5.814-2.473-12.115,2.197-17.218c4.807,2.752,14.65,6.723,14.65,6.723
				c0.183,7.533,4.245,15.986-1.237,23.636c-9.396,13.111-0.998,25.464,12.657,35.041c6.052,4.245,16.054,6.891,20.181,12.164
				L206.519,143.97z"/>
			<path fill="none" stroke="#000000" stroke-width="2" stroke-linecap="round" d="M248.5,70c-3.04,4.926,0.944,9.377,2.367,14.082
				c1.84,6.083,1.256,10.729-1.473,16.338c-4.968,10.21-7.279,22.474,2.122,30.543c4.13,3.545,8.906,7.597,11.484,12.537"/>
			<path fill="none" stroke="#000000" stroke-width="2" stroke-linecap="round" d="M236.5,99.5
				c-1.958,4.004-3.176,6.327-2.998,11.003c0.16,4.181,2.342,6.548,3.438,10.211c2.035,6.799-0.328,16.275-2.94,22.286"/>
			<path fill="none" stroke="#000000" stroke-width="2" stroke-linecap="round" d="M255,67.5c-4.819,1.715,2.726,12.202,4.531,14.738
				c3.2,4.495,5.657,9.038,3.969,14.762"/>
			<path fill="none" stroke="#000000" stroke-width="2" stroke-linecap="round" d="M251,95.5c-7.597,14.383,8.223,20.775,17,28.5"/>
		</g>
	</g>
	<g id="cover_1_">
		<path id="cover" fill-opacity="0" stroke="#000000" stroke-width="5" stroke-linejoin="round" d="M392.159,182.554
			c-18.145-17.441-43.178-39.227-70.414-43.381c-9.696-1.479-19.754-0.587-29.506-0.143c-0.088,0.004-0.188,0.008-0.279,0.012
			c-4.767-2.925-11.066-5.14-15.374-8.162c-13.655-9.576-22.054-21.93-12.657-35.041c5.482-7.65,1.42-16.104,1.237-23.636
			c0,0-9.843-3.971-14.65-6.723c-4.67,5.104-3.23,11.404-2.197,17.218c1.11,6.25-4.244,9.354-8.546,14.431
			c-4.979,5.876-5.856,11.833-7.513,18.29c-1.445,5.629-5.099,11.943-9.398,16.846c-1.852,2.111-4.968,5.188-8.446,7.699
			c-14.045,0.368-25.056,0.998-27.732,2.129c-57.952,24.494-132.494,97.25-124.139,175.724c3.814,35.822,15.339,80.6,37.727,110.024
			c15.06,19.796,32.819,25.359,58.364,28.011c43.763,4.543,93.482-0.98,137.498,0.306c38.812,1.135,77.773-1.902,105.417-29.698
			c30.904-31.074,46.73-77.285,47.4-118.722C449.716,260.318,427.504,216.528,392.159,182.554z"/>
	</g>
	<g id="face_1_">
		<g id="face">
			<path d="M274.049,287.162c10.517,8.037,29.946-18.121,33.173-24.519c8.025-15.918,25.415-24.958,44.011-27.07
				c9.223-1.048,18.933-0.607,28.224-0.819c-7.428,3.837-13.75,10.461-17.196,17.702c-3.472,7.294-1.847,15.669-3.175,23.402
				c-3.812,22.201-25.515,34.92-49.1,31.439c-7.61-1.125-16.921-3.968-22.674-7.546C281.559,296.172,274.049,287.162,274.049,287.162
				z"/>
			<path d="M257.401,292.695c-14.098,2.688-27.783-9.221-35.741-17.206c-12.375-12.419-25.961-21.745-44.394-27.114
				c-5.618-1.636-12.12-2.899-17.974-3.678c11.104,9.922,7.865,23.49,15.734,34.871c3.951,5.713,9.114,12.751,16.644,15.708
				c6.088,2.393,13.012,2.057,19.439,2.343c10.814,0.48,21.408-0.88,32.138-1.36L257.401,292.695z"/>
			<path d="M129.025,198.613c-6.031,9.932-14.867,17.794-19.247,28.811c-7.78,19.569-11.868,38.85-11.17,59.887
				c0.228,6.877,1.025,13.285,2.689,19.968c2.075-4.312,2.404-9.147,5.454-13.171c0.302,7.777,2.559,15.18,4.702,22.85
				c2.147,7.683,4.125,16.643,8.168,23.696c0.372-1.288,0.793-2.593,1.598-3.689c3.262,5.641,4.944,13.979,8.165,20.162
				c1.44-3.22,6.108-7.261,7.844-10.444c0.344,13.533,5.138,33.201,15.168,43.406c0.914-3.535,1.051-10.589,4.013-13.04
				c2.577,6.228,6.196,12.523,9.101,18.714c2.798,5.961,6.035,12.339,11.379,16.864c0.681-1.86,0.789-4.84,0.887-6.878
				c0.954,1.289,2.223,2.86,3.932,3.432c1.746-2.661,1.398-7.959,2.002-11.198c0.842-4.506,2.375-9.064,4.108-13.336
				c1.37,5.396,5.678,16.358,11.417,18.823c0.3-3.575,0.239-6.07,2.74-8.764c0.794,5.09,7.445,9.757,11.111,13.197
				c4.663,4.376,9.281,9.667,14.772,13.115c-0.122-3.684-0.254-7.548,0.059-11.186c2.088,2.282,3.842,4.21,6.329,6.028
				c2.615,1.911,5.688,5.563,8.692,6.592c0.176-2.431,0.074-4.287,1.102-6.545c2.006,3.612,2.727,8.638,7.615,10.067
				c3.772-13.066,6.76-26.578,9.853-39.663c1.745,2.285,2.271,7.569,3.304,10.525c1.151,3.292,2.132,6.722,4.066,9.746
				c1.729,0.455,3.108-0.87,5.408-4.846c3.68,7.067,1.617,17.407,4.141,20.318c2.365,2.729,6.576,7.411,8.372,10.532
				c2.209-4.79,12.247-15.945,14.8-19.842c5.937-9.061,11.678-19.604,14.996-29.858c1.546,3.654,1.603,10.257,1.862,14.212
				c0.3,4.539-1.038,8.886-0.836,12.996c6.255-4.362,12.738-10.009,17.545-15.84c4.111-4.991,6.646-11.108,10.447-16.214
				c-0.123,5.553,0.032,11.037,0.529,16.484c6.108-6.303,11.382-12.757,15.444-20.139c0.225,4.201,1.341,9.17,3.427,12.619
				c17.049-20.284,21.215-45.411,24.341-70.538c0.717-5.763,1.657-12.389,0.489-18.045c4.111,3.289,8.651,6.1,12.788,9.496
				c6.362-8.467,1.572-18.713,2.265-27.925c2.09,1.272,4.246,3.323,6.151,4.978c2.08-5.133,1.231-11.413,1.237-16.951
				c0.011-7.639-0.196-14.998-1.82-22.474c-1.802-8.302-4.552-16.537-8.777-23.867c0.181,9.201,1.209,36.478,0.953,41.146
				c-0.173,3.154-0.448,9.445-2.655,11.635c-2.487-2.855-5.84-4.291-8.889-6.403c-1.062,4.942-0.857,10.24-1.885,15.248
				c-4.078-1.119-8.101-6.056-12.375-7.728c0.52,18.329,1.572,37.567-5.512,54.914c-0.838-6.706-6.413-17.064-12.304-21.024
				c-0.571,6.604,0.35,12.973-1.324,19.477c-1.732,6.74-2.836,14.357-5.681,20.528c-0.541-2.472-2.145-4.587-3.31-6.877
				c-3.13,3.994-5.572,9.535-8.636,13.909c-6.525-9.373-11.284-22.674-21.992-28.808c-4.119,9.111-5.712,19.098-10.43,28.092
				c-2.812,5.36-5.932,10.554-8.07,16.136c-1.185,3.091-3.72,6.361-3.773,9.803c-1.202-3.885-1.503-8.508-2.415-12.657
				c-1.256-5.712-3.527-11.254-5.307-16.849c-2.468-7.768-6.433-15.133-11.623-21.553c-5.276,5.178-7.732,12.288-10.579,18.919
				c-2.506,5.839-2.188,12.498-4.476,18.005c-1.805-6.512-4.265-12.172-5.521-18.859c-0.989-5.272-3.22-9.718-4.14-20.76
				c-1.535,2.054-6.373,15.943-7.819,20.349c-2.331,7.102-4.479,15.159-5.497,22.341c-3.87-5.691-2.694-13.444-3.336-20.127
				c-2.347,2.548-3.363,6.859-4.151,10.09c-1.915-2.468-1.27-8.729-1.279-11.957c-2.477,6.296-5.341,13.6-6.381,20.964
				c-1.07,7.577-1.257,15.196-2.001,22.697c-8.067-17.987-10.683-38.778-9.983-58.458c-9.065,5.938-8.249,21.1-12.569,29.745
				c-4.051-5.982-1.626-15.169-2.278-21.905c-2.658,1.094-5.159,4.194-7.572,5.957c-3.772,2.755-6.458,6.883-10.192,9.434
				c1.112-10.463,2.689-21.148,3.976-31.575c0.607-4.925,3.398-9.939,3.68-14.725c-3.962,0.969-8.692,6.716-11.317,9.771
				c-2.903,3.379-7.818,8.347-8.944,12.654c-5.298-3.854-1.833-17.352-0.899-22.436c-3.633,2.609-6.762,6.83-9.31,10.555
				c-3.791,5.542-10.233,14.473-9.459,21.511c-3.231-11.793-1.767-23.604-1.384-30.153c0.511-8.758,2.633-21.055,6.939-28.724
				c-5.956,4.819-9.266,12.114-12.364,18.682c-1.804-4.976-0.655-10.928-1.126-16.175c-1.352,1.717-2.08,4.273-3.574,6.15
				c-1.491,1.873-3.867,3.344-4.959,5.268c-0.98-3.863-3.513-7.635-6.028-10.764c-1.065-1.325-2.253-2.572-3.258-3.967
				c-1.783-2.475-0.438-20.396,1.156-27.938c1.17-5.533,3.268-10.886,4.368-16.357c-3.9,6.505-7.814,12.727-11.084,19.611
				c-1.265-7.334,0.87-13.979,2.559-21.159c1.379-5.861,3.087-11.709,5.276-17.346C124.521,215.902,129.812,198.244,129.025,198.613z
				"/>
		</g>
	</g>
</svg>
